<svg width="624" height="541" viewBox="0 0 624 541" fill="none" xmlns="http://www.w3.org/2000/svg">
<path d="M298.515 69.9428C311.37 57.0667 311.37 36.1904 298.515 23.3143C285.661 10.4381 264.819 10.4381 251.964 23.3143C239.109 36.1904 239.109 57.0667 251.964 69.9428C264.819 82.819 285.66 82.819 298.515 69.9428Z" fill="#FBD931"/>
<path d="M519.592 305.121C516.287 321.286 510.398 336.773 502.39 351.241C448.835 448.108 302.068 500.466 227.667 420.995C216.99 409.582 207.796 397.744 200 385.609C174.494 345.81 164.283 302.957 167.46 262.352C170.045 229.342 181.485 197.859 200.72 170.747C208.347 159.97 217.244 149.871 227.328 140.664C365.876 13.6304 544.887 180.717 519.592 305.121Z" fill="#FA6501"/>
<path d="M502.39 351.242C448.835 448.108 302.068 500.466 227.667 420.996C216.99 409.582 207.796 397.744 200 385.61C199.831 383.064 199.704 380.433 199.576 377.718C198.221 352.218 198.136 338.895 225.676 336.985C232.413 336.519 242.963 335.628 255.716 334.525C258.004 330.791 265.63 318.062 271.731 304.909C265.673 304.145 201.695 295.659 180.341 276.99C176.019 273.214 171.655 268.123 167.46 262.31C149.835 238.04 134.412 201.339 132.252 195.78C129.964 189.925 129.752 185.3 131.065 176.645C130.091 177.79 121.405 166.377 122.676 162.346C124.795 155.769 145.471 141.98 156.995 140.622C159.029 140.367 164.791 150.423 163.478 150.678C170.681 151.611 185.044 155.091 188.306 158.867C189.747 160.521 194.873 165.104 200.678 170.747C210.084 179.827 221.227 191.665 221.397 198.284C221.693 209.018 223.303 208.891 226.608 209.188C229.955 209.485 232.709 211.097 232.413 215.001C232.116 218.947 232.709 222.002 239.404 220.941C246.098 219.923 250.589 221.068 251.903 226.627C253.216 232.142 271.52 232.312 278.468 232.439C285.417 232.567 320.753 235.325 324.905 237.828C327.405 213.983 336.938 176.22 336.938 176.22C336.938 176.22 307.873 166.546 308.296 161.879C308.55 159.249 331.811 150.211 346.979 144.61C347.191 144.526 356.343 145.629 361.258 143.592C361.258 143.592 353.165 165.74 379.138 174.735C379.138 174.735 379.477 179.063 381.341 179.318C382.612 179.487 384.519 178.469 385.366 174.438C385.747 172.614 385.917 170.153 385.747 166.928C385.747 166.928 385.917 166.928 386.256 166.928H386.298C390.577 166.971 394.603 167.395 397.95 168.116C402.61 169.135 405.873 170.832 406.551 173.081C407.61 176.517 405.025 180.548 394.645 182.118C390.747 193.956 391.34 204.309 395.069 204.86C399.178 205.497 400.746 204.139 402.737 202.696C404.729 201.254 406.297 208.594 397.95 214.152C391.425 218.48 383.248 220.135 376.85 215.892C375.24 227.39 373.503 240.331 372.189 252.127C375.155 252.169 418.711 279.96 430.489 286.197C438.116 290.271 453.369 299.605 464.936 312.97C490.103 311.57 497.433 313.48 500.145 333.124C500.78 336.858 501.543 343.223 502.39 351.242Z" fill="white"/>
<path d="M344.352 165.486C343.463 165.104 343.081 164.043 343.463 163.194L345.285 159.121C345.666 158.23 346.725 157.848 347.573 158.23C348.462 158.612 348.844 159.673 348.462 160.521L346.64 164.595C346.301 165.486 345.242 165.91 344.352 165.486Z" fill="#202D37"/>
<path d="M355.03 170.322C354.14 169.94 353.759 168.88 354.14 168.031L355.962 163.958C356.343 163.067 357.402 162.685 358.25 163.067C359.139 163.449 359.521 164.509 359.139 165.358L357.318 169.431C356.936 170.322 355.919 170.704 355.03 170.322Z" fill="#202D37"/>
<path d="M281.138 55.5938C280.46 57.3334 279.485 58.6063 278.299 59.4124C277.113 60.2186 275.587 60.5156 273.765 60.3459L271.944 64.9282C271.901 65.0555 271.816 65.1404 271.689 65.2253C271.562 65.2677 271.435 65.2677 271.308 65.2253L265.292 62.8068C265.164 62.7643 265.08 62.6795 264.995 62.5522C264.953 62.4249 264.953 62.2976 264.995 62.1703L266.605 58.0971C265.503 57.588 264.487 57.1212 263.639 56.6121C263.512 56.5697 263.47 56.4424 263.427 56.3151C263.385 56.1878 263.385 56.0605 263.427 55.9332L265.842 51.266C265.927 51.1387 266.012 51.0538 266.181 51.0114C266.351 50.969 266.478 51.0114 266.605 51.0963C266.944 51.3084 267.283 51.563 267.664 51.7751C268.046 51.9873 268.512 52.2843 269.105 52.5813C269.698 52.9207 270.249 53.1753 270.8 53.3874C271.393 53.642 271.901 53.7693 272.367 53.7693C272.833 53.7693 273.215 53.6845 273.469 53.5147C273.723 53.345 273.935 53.1753 274.062 53.0056C274.189 52.8359 274.316 52.6661 274.359 52.5389C274.443 52.3691 274.443 52.157 274.486 51.9449C274.486 51.7327 274.486 51.4357 274.401 51.0538C274.316 50.672 274.104 50.2477 273.765 49.7809C273.384 49.3142 272.918 48.8475 272.282 48.4232C271.562 47.914 270.969 47.32 270.418 46.5987C269.867 45.8774 269.444 45.0713 269.062 44.1803C268.723 43.2892 268.554 42.2709 268.554 41.1678C268.554 40.0646 268.808 38.919 269.232 37.7734C269.867 36.1611 270.8 34.9731 272.071 34.2093C273.299 33.4456 274.825 33.1062 276.562 33.191L278.426 28.4814C278.468 28.3541 278.553 28.2692 278.723 28.1844C278.85 28.1419 278.977 28.0995 279.104 28.1844L285.12 30.6028C285.248 30.6453 285.332 30.7726 285.417 30.8999C285.459 31.0271 285.459 31.1969 285.417 31.3241L283.807 35.3974C284.866 35.8641 285.883 36.3732 286.9 36.9248C287.027 36.9673 287.069 37.0945 287.154 37.2218C287.196 37.3491 287.196 37.4764 287.112 37.6037L284.697 42.2709C284.612 42.3982 284.527 42.4831 284.358 42.5255C284.188 42.5679 284.061 42.5679 283.934 42.4831C282.409 41.4648 280.968 40.6586 279.612 40.107C279.062 39.8525 278.553 39.7252 278.087 39.7252C277.621 39.7252 277.24 39.81 276.985 39.9797C276.731 40.1495 276.519 40.3192 276.35 40.4889C276.223 40.6586 276.096 40.8283 276.053 40.9556C276.011 41.1253 275.969 41.2951 275.926 41.5072C275.926 41.7194 275.926 42.0164 276.011 42.3982C276.096 42.7801 276.308 43.2044 276.689 43.6711C277.07 44.1378 277.536 44.6046 278.172 45.0288C278.85 45.538 279.485 46.132 280.036 46.8533C280.587 47.5746 281.053 48.3808 281.392 49.2718C281.731 50.1628 281.9 51.1811 281.9 52.2843C281.816 53.345 281.561 54.4482 281.138 55.5938Z" fill="#202D37"/>
<path d="M271.477 65.8618C271.35 65.8618 271.181 65.8194 271.054 65.777L265.037 63.3585C264.741 63.2312 264.529 63.0191 264.402 62.7645C264.275 62.4675 264.275 62.1705 264.402 61.8735L265.8 58.3518C264.91 57.9275 264.063 57.5032 263.342 57.1214C263.088 56.9941 262.919 56.7395 262.834 56.4849C262.749 56.2304 262.749 55.9334 262.876 55.6364C262.876 55.6364 262.876 55.5939 262.919 55.5939L265.334 50.9267C265.503 50.6297 265.757 50.4175 266.096 50.3327C266.435 50.2478 266.732 50.3327 267.029 50.5024C267.367 50.7145 267.706 50.9691 268.045 51.1813C268.384 51.3934 268.85 51.648 269.444 51.9874C269.994 52.2844 270.545 52.539 271.054 52.7512C271.562 52.9633 272.028 53.0906 272.409 53.0906C272.833 53.0906 273.045 53.0057 273.13 52.9209C273.342 52.7936 273.511 52.6239 273.596 52.539C273.723 52.4117 273.765 52.2844 273.808 52.242C273.85 52.1571 273.892 52.0299 273.892 51.8601C273.892 51.7328 273.892 51.5207 273.808 51.0964C273.765 50.9267 273.638 50.5872 273.257 50.0781C272.918 49.6538 272.494 49.2295 271.943 48.8476C271.181 48.3385 270.503 47.6596 269.91 46.8959C269.316 46.1322 268.85 45.2836 268.469 44.3077C268.088 43.3318 267.876 42.2287 267.918 41.0406C267.918 39.8526 268.172 38.6221 268.681 37.4341C269.359 35.6945 270.418 34.4216 271.774 33.573C273.003 32.8093 274.486 32.4275 276.18 32.4275L277.875 28.1421C278.002 27.8451 278.172 27.6329 278.468 27.5056C278.765 27.3784 279.061 27.3359 279.358 27.4632L285.374 29.8817C285.671 30.009 285.883 30.2211 286.01 30.5181C286.137 30.8151 286.137 31.1121 286.01 31.4091L284.612 34.9308C285.502 35.3551 286.349 35.7794 287.196 36.2037C287.451 36.331 287.62 36.5855 287.747 36.8401C287.874 37.1371 287.832 37.4765 287.662 37.7736L285.247 42.4408C285.078 42.7378 284.824 42.9075 284.527 43.0348C284.188 43.1197 283.849 43.0772 283.553 42.8651C282.07 41.8892 280.671 41.0831 279.358 40.5315C278.85 40.3193 278.426 40.192 278.045 40.192C277.706 40.192 277.451 40.2345 277.282 40.3618C276.985 40.5315 276.858 40.6588 276.773 40.7436C276.689 40.8285 276.604 40.9558 276.562 41.0406C276.519 41.0831 276.519 41.2103 276.477 41.4225C276.477 41.5498 276.477 41.7619 276.562 42.1438C276.604 42.4408 276.816 42.7802 277.112 43.1621C277.451 43.5864 277.875 44.0107 278.426 44.3925C279.146 44.9441 279.824 45.5806 280.417 46.3443C281.01 47.108 281.476 47.9566 281.858 48.9325C282.239 49.9084 282.409 51.0115 282.409 52.1996C282.409 53.3876 282.154 54.5756 281.646 55.8061C280.883 57.673 279.866 59.0307 278.595 59.9217C277.409 60.7279 275.884 61.0673 274.104 60.9825L272.452 65.1405C272.325 65.4375 272.113 65.6497 271.859 65.777C271.774 65.8194 271.604 65.8618 271.477 65.8618ZM265.588 62.2129L271.393 64.5465L273.172 60.0914C273.257 59.8369 273.553 59.6671 273.808 59.7096C275.502 59.8793 276.901 59.5823 277.96 58.9034C279.019 58.1821 279.909 56.9941 280.544 55.3818C280.968 54.321 281.18 53.2603 281.222 52.242C281.222 51.2237 281.095 50.2902 280.756 49.4417C280.417 48.5931 279.994 47.8293 279.485 47.1929C278.977 46.514 278.384 45.9624 277.748 45.4957C277.112 45.029 276.562 44.5198 276.138 44.0107C275.714 43.4591 275.46 42.9499 275.375 42.4832C275.291 42.0589 275.248 41.6771 275.248 41.4225C275.248 41.1255 275.333 40.8709 275.418 40.6588C275.502 40.4042 275.672 40.192 275.841 39.9799C276.011 39.7677 276.265 39.598 276.604 39.3859C276.985 39.1313 277.494 39.004 278.087 39.004C278.638 39.004 279.231 39.1313 279.866 39.4283C281.222 39.9799 282.663 40.786 284.188 41.8044L286.476 37.3493C285.544 36.8401 284.527 36.3734 283.51 35.9067C283.214 35.7794 283.044 35.3975 283.171 35.1005L284.739 31.1121L278.892 28.7785L277.07 33.4033C276.985 33.6579 276.731 33.8276 276.435 33.7852C274.824 33.7003 273.426 34.0398 272.325 34.7186C271.181 35.3975 270.333 36.5007 269.74 37.9433C269.316 39.004 269.105 40.0648 269.105 41.0831C269.105 42.1014 269.232 43.0348 269.571 43.8834C269.91 44.732 270.333 45.4957 270.842 46.1746C271.35 46.8535 271.943 47.405 272.579 47.8718C273.257 48.3385 273.808 48.8476 274.189 49.3568C274.613 49.9084 274.867 50.4175 274.952 50.8843C275.036 51.3086 275.079 51.648 275.036 51.945C275.036 52.242 274.952 52.4966 274.867 52.7512C274.782 52.9633 274.655 53.1754 274.443 53.3876C274.274 53.5997 274.019 53.8119 273.723 54.024C273.342 54.2786 272.833 54.4059 272.282 54.4059C271.732 54.4059 271.138 54.2362 270.46 53.9816C269.91 53.7695 269.316 53.4725 268.723 53.133C268.13 52.7936 267.622 52.539 267.24 52.2844C266.901 52.0723 266.562 51.8601 266.266 51.648L263.978 56.1031C264.783 56.5698 265.757 57.0365 266.817 57.5032C267.113 57.6305 267.283 58.0124 267.156 58.3094L265.588 62.2129Z" fill="#202D37"/>
<path d="M536.032 146.562C536.54 147.368 536.752 148.132 536.709 148.853C536.667 149.574 536.328 150.296 535.735 150.975L537.048 153.096C537.091 153.138 537.091 153.223 537.091 153.308C537.091 153.393 537.048 153.435 536.964 153.478L534.167 155.217C534.125 155.26 534.04 155.26 533.955 155.26C533.871 155.26 533.828 155.218 533.786 155.133L532.642 153.266C532.091 153.563 531.625 153.817 531.159 154.029C531.117 154.072 531.032 154.072 530.99 154.029C530.905 153.987 530.863 153.945 530.82 153.902L529.676 151.526C529.634 151.441 529.634 151.399 529.676 151.314C529.719 151.229 529.761 151.187 529.846 151.187C530.058 151.102 530.227 151.059 530.439 150.975C530.651 150.89 530.905 150.762 531.201 150.635C531.498 150.508 531.795 150.338 532.049 150.211C532.303 150.041 532.515 149.871 532.684 149.702C532.811 149.532 532.896 149.32 532.896 149.193C532.896 149.023 532.896 148.896 532.854 148.811C532.812 148.683 532.812 148.599 532.769 148.556C532.727 148.471 532.642 148.386 532.557 148.344C532.473 148.259 532.345 148.174 532.176 148.089C532.007 148.004 531.752 147.962 531.456 147.962C531.159 147.962 530.82 148.047 530.481 148.132C530.058 148.259 529.634 148.344 529.168 148.344C528.702 148.344 528.236 148.302 527.77 148.174C527.303 148.047 526.837 147.835 526.414 147.453C525.948 147.113 525.566 146.689 525.27 146.138C524.804 145.416 524.634 144.653 524.677 143.931C524.761 143.21 525.058 142.489 525.609 141.81L524.295 139.646C524.253 139.603 524.253 139.519 524.253 139.434C524.253 139.349 524.295 139.306 524.38 139.264L527.176 137.524C527.219 137.482 527.303 137.482 527.388 137.482C527.473 137.482 527.515 137.524 527.558 137.609L528.702 139.476C529.21 139.179 529.719 138.925 530.227 138.67C530.269 138.628 530.354 138.628 530.439 138.67C530.524 138.67 530.566 138.712 530.608 138.797L531.752 141.173C531.795 141.258 531.795 141.301 531.752 141.386C531.71 141.47 531.668 141.513 531.625 141.513C530.735 141.81 529.973 142.149 529.337 142.531C529.083 142.701 528.871 142.871 528.744 143.04C528.617 143.21 528.532 143.422 528.532 143.592C528.532 143.762 528.532 143.889 528.532 143.974C528.575 144.059 528.575 144.186 528.617 144.228C528.659 144.313 528.744 144.356 528.829 144.44C528.914 144.525 529.041 144.61 529.21 144.653C529.38 144.737 529.634 144.78 529.93 144.78C530.227 144.78 530.566 144.695 530.905 144.61C531.329 144.483 531.752 144.398 532.218 144.398C532.684 144.398 533.15 144.44 533.617 144.568C534.083 144.695 534.549 144.95 534.972 145.289C535.354 145.628 535.735 146.053 536.032 146.562Z" fill="#202D37"/>
<path d="M534.04 155.812C533.956 155.812 533.913 155.812 533.829 155.769C533.617 155.727 533.405 155.557 533.278 155.345L532.43 153.987C532.091 154.157 531.752 154.327 531.414 154.497C531.202 154.581 530.99 154.581 530.778 154.539C530.566 154.454 530.397 154.327 530.27 154.157C530.27 154.157 530.27 154.115 530.227 154.115L529.083 151.739C528.956 151.484 528.956 151.229 529.041 151.017C529.126 150.763 529.337 150.593 529.592 150.508C529.761 150.466 529.973 150.381 530.142 150.296C530.354 150.211 530.566 150.126 530.863 149.957C531.159 149.829 531.414 149.702 531.625 149.532C531.837 149.405 532.007 149.278 532.091 149.15C532.176 149.023 532.176 148.981 532.176 148.981C532.176 148.853 532.176 148.769 532.176 148.769C532.176 148.726 532.134 148.684 532.134 148.684C532.134 148.684 532.134 148.641 532.049 148.599C532.049 148.599 531.964 148.514 531.795 148.429C531.753 148.429 531.668 148.387 531.371 148.387C531.117 148.387 530.863 148.429 530.566 148.556C530.1 148.726 529.592 148.811 529.083 148.811C528.575 148.811 528.066 148.726 527.516 148.599C526.965 148.472 526.414 148.175 525.906 147.793C525.397 147.411 524.973 146.902 524.592 146.308C524.084 145.459 523.829 144.568 523.914 143.719C523.999 142.998 524.253 142.277 524.719 141.598L523.618 139.816C523.491 139.604 523.448 139.392 523.49 139.18C523.533 138.925 523.702 138.713 523.914 138.586L526.711 136.846C526.922 136.719 527.177 136.676 527.388 136.719C527.643 136.761 527.812 136.931 527.939 137.1L528.787 138.458C529.126 138.288 529.465 138.119 529.846 137.949C530.058 137.864 530.27 137.864 530.481 137.907C530.736 137.991 530.948 138.161 531.032 138.373L532.176 140.749C532.303 140.962 532.303 141.216 532.219 141.471C532.134 141.725 531.922 141.937 531.668 142.022C530.863 142.319 530.143 142.659 529.549 142.998C529.337 143.125 529.21 143.21 529.126 143.338C529.041 143.422 529.041 143.507 529.041 143.507C529.041 143.677 529.041 143.719 529.041 143.762C529.041 143.804 529.041 143.804 529.083 143.847C529.083 143.847 529.083 143.889 529.126 143.889C529.126 143.889 529.21 143.932 529.38 144.016C529.422 144.016 529.549 144.059 529.804 144.059C530.058 144.059 530.312 144.016 530.609 143.889C531.075 143.762 531.583 143.677 532.091 143.635C532.6 143.635 533.151 143.677 533.659 143.847C534.21 144.016 534.761 144.271 535.269 144.653C535.778 145.035 536.201 145.544 536.583 146.138C537.133 147.071 537.388 147.962 537.345 148.811C537.303 149.532 537.006 150.254 536.498 150.932L537.557 152.672C537.684 152.884 537.727 153.096 537.684 153.351C537.642 153.606 537.472 153.775 537.303 153.903L534.507 155.642C534.337 155.769 534.21 155.812 534.04 155.812ZM532.642 152.545C532.854 152.545 533.066 152.672 533.193 152.842L534.168 154.412L536.328 153.096L535.227 151.314C535.1 151.06 535.1 150.763 535.312 150.551C535.82 149.957 536.117 149.405 536.159 148.811C536.201 148.217 535.989 147.581 535.566 146.902C535.269 146.435 534.973 146.053 534.591 145.756C534.21 145.459 533.829 145.247 533.447 145.162C533.024 145.035 532.642 144.992 532.261 144.992C531.88 144.992 531.498 145.077 531.117 145.162C530.693 145.289 530.312 145.374 529.931 145.374C529.549 145.374 529.21 145.332 528.956 145.204C528.744 145.077 528.532 144.992 528.405 144.865C528.278 144.738 528.151 144.61 528.066 144.483C527.982 144.356 527.897 144.186 527.897 144.016C527.855 143.847 527.855 143.677 527.855 143.465C527.855 143.168 527.982 142.871 528.193 142.574C528.405 142.319 528.66 142.107 528.999 141.895C529.549 141.556 530.227 141.259 530.99 140.962L530.185 139.307C529.804 139.477 529.38 139.689 528.999 139.901C528.702 140.071 528.321 139.986 528.151 139.689L527.177 138.119L525.016 139.434L526.16 141.301C526.287 141.513 526.287 141.81 526.117 142.022C525.651 142.616 525.397 143.21 525.312 143.804C525.27 144.398 525.397 144.992 525.821 145.629C526.117 146.096 526.456 146.477 526.838 146.774C527.219 147.071 527.6 147.284 527.982 147.368C528.405 147.496 528.787 147.538 529.21 147.538C529.592 147.538 529.973 147.496 530.312 147.368C530.736 147.241 531.117 147.156 531.498 147.156C531.88 147.156 532.219 147.199 532.473 147.326C532.685 147.453 532.854 147.538 532.981 147.665C533.108 147.793 533.235 147.92 533.32 148.047C533.405 148.175 533.447 148.344 533.49 148.514C533.532 148.684 533.532 148.853 533.532 149.066C533.532 149.363 533.405 149.66 533.193 149.957C532.981 150.211 532.727 150.423 532.388 150.635C532.134 150.805 531.837 150.932 531.498 151.102C531.159 151.229 530.905 151.357 530.693 151.442C530.609 151.484 530.524 151.484 530.481 151.526L531.286 153.224C531.625 153.054 532.007 152.842 532.388 152.63C532.43 152.587 532.558 152.545 532.642 152.545ZM531.329 140.834C531.329 140.877 531.329 140.877 531.329 140.834C531.329 140.877 531.329 140.877 531.329 140.834Z" fill="#202D37"/>
<path d="M530.015 167.82C523.533 167.82 515.313 163.407 509.297 144.865C504.297 129.379 486.417 96.9201 463.199 95.2653C462.563 95.2229 462.012 94.7562 461.843 94.1198C461.674 93.4833 461.97 92.8469 462.521 92.5074C464.004 91.574 498.704 70.1047 507.687 67.7286C512.517 66.4557 517.855 68.4499 523.194 73.499C528.151 78.2087 532.854 85.3793 536.837 94.247C541.54 104.77 546.836 115.631 553.657 123.693C562.174 133.706 570.732 136.634 579.926 132.646C580.435 132.434 581.07 132.518 581.494 132.9C581.918 133.282 582.087 133.876 581.918 134.428C577.384 149.787 540.608 166.462 532.176 167.692C531.413 167.777 530.736 167.82 530.015 167.82ZM467.563 92.9317C479.257 95.4775 488.79 104.727 494.933 112.492C503.619 123.396 509.466 135.913 512.093 143.932C516.923 158.867 523.533 165.868 531.668 164.722C538.701 163.704 569.97 149.533 577.681 136.549C555.183 142.786 540.523 109.903 534.083 95.4775C526.541 78.5481 516.245 68.5772 508.449 70.6563C501.501 72.4807 476.799 87.2886 467.563 92.9317Z" fill="#202D37"/>
<path d="M500.865 88.3492C500.314 88.3492 499.806 88.0522 499.552 87.543C499.17 86.8217 499.467 85.9307 500.187 85.5488C500.23 85.5064 506.416 82.2818 514.254 78.3358C514.974 77.954 515.864 78.251 516.245 78.9723C516.627 79.6936 516.33 80.5846 515.61 80.9665C507.814 84.9548 501.628 88.137 501.586 88.1795C501.331 88.3068 501.077 88.3492 500.865 88.3492Z" fill="#202D37"/>
<path d="M499.679 98.0235C499.213 98.0235 498.79 97.8114 498.493 97.4295C498.027 96.7506 498.154 95.8172 498.832 95.3505C501.459 93.4412 510.06 89.0285 518.873 85.125C519.635 84.7855 520.483 85.125 520.822 85.8887C521.161 86.6524 520.822 87.501 520.059 87.8405C511.543 91.6167 502.984 95.9445 500.569 97.7265C500.315 97.8962 499.976 98.0235 499.679 98.0235Z" fill="#202D37"/>
<path d="M510.865 107.145C510.356 107.145 509.89 106.89 509.594 106.424C509.17 105.745 509.382 104.811 510.06 104.387C510.144 104.345 518.025 99.4653 523.914 96.3679C524.635 95.9861 525.524 96.2831 525.906 97.0044C526.287 97.7257 525.991 98.6167 525.27 98.9986C519.508 102.011 511.67 106.848 511.585 106.89C511.415 107.06 511.119 107.145 510.865 107.145Z" fill="#202D37"/>
<path d="M517.728 118.941C517.262 118.941 516.796 118.729 516.541 118.347C516.075 117.668 516.202 116.735 516.88 116.268C516.923 116.226 522.346 112.322 527.43 109.097C528.108 108.673 529.04 108.843 529.464 109.564C529.888 110.243 529.718 111.176 528.998 111.601C523.956 114.783 518.66 118.644 518.575 118.686C518.363 118.856 518.024 118.941 517.728 118.941Z" fill="#202D37"/>
<path d="M539.591 340.846C538.786 340.846 538.108 340.21 538.108 339.404C538.108 339.319 538.108 339.107 538.066 338.852C537.176 328.203 538.193 325.572 540.015 324.851C542.387 323.917 550.861 323.705 552.556 323.663C552.556 323.663 552.556 323.663 552.598 323.663C553.403 323.663 554.081 324.299 554.081 325.105C554.081 325.911 553.446 326.59 552.641 326.633C549.082 326.717 543.023 327.014 541.286 327.524C541.032 327.948 540.354 329.985 541.074 338.555C541.116 339.064 541.116 339.192 541.116 339.319C541.074 340.168 540.396 340.846 539.591 340.846Z" fill="#FBD931"/>
<path d="M622.126 339.404C622.084 339.404 622.042 339.404 621.999 339.404C621.194 339.319 620.559 338.598 620.644 337.791C620.898 334.821 621.152 329.602 620.728 327.99C619.881 327.269 615.39 326.632 610.941 326.632C610.136 326.632 609.458 325.954 609.458 325.147C609.458 324.341 610.136 323.662 610.941 323.662C616.237 323.662 622.677 324.256 623.525 327.014C624.287 329.475 623.694 336.646 623.567 338.046C623.525 338.852 622.889 339.404 622.126 339.404Z" fill="#FBD931"/>
<path d="M616.703 397.575C614.415 397.575 612.297 397.278 611.577 397.15C610.772 397.023 610.221 396.259 610.348 395.453C610.475 394.647 611.238 394.095 612.043 394.223C616.449 394.901 620.516 394.562 620.94 393.798C621.152 390.531 620.94 384.421 620.94 384.337C620.898 383.53 621.533 382.809 622.381 382.809C623.186 382.809 623.906 383.403 623.906 384.252C623.906 384.506 624.118 390.574 623.906 394.01C623.864 394.859 623.44 395.623 622.72 396.217C621.406 397.278 618.991 397.575 616.703 397.575Z" fill="#FBD931"/>
<path d="M551.285 398.423C549.76 398.423 544.548 398.338 542.769 397.362C542.133 397.023 540.396 396.089 540.396 384.294C540.396 383.488 541.074 382.809 541.879 382.809C542.684 382.809 543.362 383.488 543.362 384.294C543.362 388.537 543.743 393.629 544.336 394.817C545.353 395.198 548.616 395.411 551.285 395.411C552.09 395.411 552.768 396.089 552.768 396.896C552.768 397.702 552.132 398.423 551.285 398.423Z" fill="#FBD931"/>
<path d="M564.335 360.364C560.733 360.364 556.793 360.279 554.802 359.982C554.081 359.855 552.853 359.685 552.556 358.539C551.793 355.697 551.709 345.853 556.073 340.337C558.869 336.816 565.563 335.967 576.029 337.749C576.283 337.791 576.495 337.834 576.579 337.834C577.13 337.876 577.596 338.173 577.85 338.682C578.02 339.022 578.444 339.828 578.401 348.865C578.359 357.945 577.935 358.582 577.723 358.921C577.257 359.643 576.961 360.152 567.216 360.321C566.326 360.364 565.352 360.364 564.335 360.364ZM555.268 357.054C558.488 357.564 571.749 357.521 575.181 357.012C575.478 354.042 575.52 343.732 575.266 340.677C563.275 338.64 559.547 340.761 558.403 342.204C555.013 346.447 554.844 354.169 555.268 357.054ZM576.495 337.876H576.537H576.495Z" fill="#202D37"/>
<path d="M568.19 354.381H565.69C564.207 354.381 562.979 353.151 562.979 351.666V349.884C562.979 348.399 564.207 347.168 565.69 347.168H568.19C569.673 347.168 570.902 348.399 570.902 349.884V351.666C570.902 353.193 569.673 354.381 568.19 354.381Z" fill="#202D37"/>
<path d="M568.19 355.018H565.69C563.826 355.018 562.343 353.533 562.343 351.666V349.884C562.343 348.017 563.826 346.532 565.69 346.532H568.19C570.055 346.532 571.537 348.017 571.537 349.884V351.666C571.537 353.533 570.012 355.018 568.19 355.018ZM565.69 347.847C564.546 347.847 563.614 348.781 563.614 349.926V351.708C563.614 352.854 564.546 353.787 565.69 353.787H568.19C569.334 353.787 570.266 352.854 570.266 351.708V349.926C570.266 348.781 569.334 347.847 568.19 347.847H565.69Z" fill="#202D37"/>
<path d="M568.19 381.366H565.69C564.207 381.366 562.979 380.136 562.979 378.651V376.869C562.979 375.384 564.207 374.153 565.69 374.153H568.19C569.673 374.153 570.902 375.384 570.902 376.869V378.651C570.902 380.136 569.673 381.366 568.19 381.366Z" fill="#202D37"/>
<path d="M568.19 382.003H565.69C563.826 382.003 562.343 380.518 562.343 378.651V376.869C562.343 375.002 563.826 373.517 565.69 373.517H568.19C570.055 373.517 571.537 375.002 571.537 376.869V378.651C571.537 380.518 570.012 382.003 568.19 382.003ZM565.69 374.79C564.546 374.79 563.614 375.723 563.614 376.869V378.651C563.614 379.797 564.546 380.73 565.69 380.73H568.19C569.334 380.73 570.266 379.797 570.266 378.651V376.869C570.266 375.723 569.334 374.79 568.19 374.79H565.69Z" fill="#202D37"/>
<path d="M596.874 353.066H594.374C592.891 353.066 591.663 351.836 591.663 350.351V348.568C591.663 347.083 592.891 345.853 594.374 345.853H596.874C598.357 345.853 599.586 347.083 599.586 348.568V350.351C599.586 351.836 598.357 353.066 596.874 353.066Z" fill="#202D37"/>
<path d="M596.874 353.703H594.375C592.51 353.703 591.027 352.217 591.027 350.351V348.569C591.027 346.702 592.51 345.217 594.375 345.217H596.874C598.739 345.217 600.221 346.702 600.221 348.569V350.351C600.221 352.175 598.696 353.703 596.874 353.703ZM594.375 346.489C593.231 346.489 592.298 347.423 592.298 348.569V350.351C592.298 351.496 593.231 352.43 594.375 352.43H596.874C598.018 352.43 598.95 351.496 598.95 350.351V348.569C598.95 347.423 598.018 346.489 596.874 346.489H594.375Z" fill="#202D37"/>
<path d="M596.874 381.366H594.374C592.891 381.366 591.663 380.136 591.663 378.651V376.869C591.663 375.384 592.891 374.153 594.374 374.153H596.874C598.357 374.153 599.586 375.384 599.586 376.869V378.651C599.586 380.136 598.357 381.366 596.874 381.366Z" fill="#202D37"/>
<path d="M596.874 382.003H594.375C592.51 382.003 591.027 380.518 591.027 378.651V376.869C591.027 375.002 592.51 373.517 594.375 373.517H596.874C598.739 373.517 600.221 375.002 600.221 376.869V378.651C600.221 380.518 598.696 382.003 596.874 382.003ZM594.375 374.79C593.231 374.79 592.298 375.723 592.298 376.869V378.651C592.298 379.797 593.231 380.73 594.375 380.73H596.874C598.018 380.73 598.95 379.797 598.95 378.651V376.869C598.95 375.723 598.018 374.79 596.874 374.79H594.375Z" fill="#202D37"/>
<path d="M595.646 360.915C592.044 360.915 588.104 360.746 586.24 360.321C584.545 359.939 584.206 359.006 584.248 358.327C584.248 357.988 584.291 356.927 584.291 355.569C584.545 338.216 584.926 337.834 585.647 337.197C587.172 335.839 597.002 335.67 602.722 338.512C606.323 340.295 607.891 345.429 608.611 349.459C609.246 353.236 609.374 357.775 608.865 358.964C608.526 359.77 608.145 360.618 598.4 360.83C597.51 360.873 596.578 360.915 595.646 360.915ZM587.172 357.478C590.434 358.115 603.018 358.03 606.111 357.351C606.323 354.466 605.603 343.307 601.366 341.186C596.917 338.979 589.884 339.064 587.808 339.446C587.426 342.077 587.257 352.132 587.214 355.612C587.214 356.375 587.214 357.012 587.172 357.478Z" fill="#202D37"/>
<path d="M572.13 394.35C566.707 394.35 557.216 393.289 554.165 386.246C551.411 379.882 552.81 369.232 553.742 367.832C554.165 367.153 554.632 366.431 562.004 366.219C565.732 366.134 570.139 366.219 573.189 366.474C576.536 366.728 577.553 367.068 577.935 368.044C578.401 369.104 578.274 376.233 578.189 380.391C577.892 391.719 577.341 392.907 577.13 393.289C576.833 393.926 576.325 394.138 576.07 394.18C576.028 394.18 574.46 394.35 572.13 394.35ZM556.199 369.656C555.691 371.735 554.716 380.094 556.877 385.058C559.673 391.507 571.198 391.634 574.587 391.337C575.138 387.773 575.477 373.22 575.223 369.656C572.045 369.104 558.996 368.892 556.199 369.656Z" fill="#202D37"/>
<path d="M585.985 375.638H585.943C585.138 375.596 584.46 374.917 584.502 374.111C584.545 372.711 584.545 371.523 584.545 370.504C584.545 367.662 584.545 366.601 585.307 365.837C585.858 365.286 585.985 365.158 600.349 365.413C601.154 365.413 601.831 366.092 601.789 366.94C601.789 367.747 601.111 368.383 600.306 368.383C600.306 368.383 600.306 368.383 600.264 368.383C595.264 368.298 589.671 368.256 587.511 368.298C587.468 368.892 587.468 369.698 587.468 370.504C587.468 371.523 587.468 372.753 587.426 374.196C587.426 375.002 586.79 375.638 585.985 375.638Z" fill="#202D37"/>
<path d="M598.908 392.78C598.315 392.78 597.764 392.441 597.552 391.889C597.213 391.126 597.595 390.277 598.315 389.938C602.467 388.156 607.636 385.949 606.747 366.347C606.704 365.541 607.34 364.819 608.145 364.777C608.95 364.734 609.67 365.371 609.712 366.177C610.644 386.161 605.391 390.107 599.501 392.653C599.29 392.738 599.12 392.78 598.908 392.78Z" fill="#202D37"/>
<path d="M588.825 393.714C586.198 393.714 585.096 393.459 584.63 392.441C584.334 391.804 584.291 390.744 584.249 385.525C584.249 384.422 584.207 383.191 584.207 381.918C584.207 381.112 584.842 380.433 585.647 380.391C586.452 380.391 587.13 381.027 587.172 381.833C587.172 383.106 587.215 384.337 587.215 385.482C587.257 387.519 587.257 389.598 587.342 390.701C588.401 390.786 590.392 390.743 591.367 390.701C591.918 390.701 592.384 390.659 592.723 390.659C593.528 390.659 594.206 391.338 594.206 392.144C594.206 392.95 593.528 393.629 592.723 393.629C592.426 393.629 592.002 393.629 591.452 393.671C590.435 393.714 589.545 393.714 588.825 393.714Z" fill="#202D37"/>
<path d="M324.99 239.27C324.947 239.27 324.905 239.27 324.82 239.27C324.015 239.185 323.422 238.464 323.507 237.658C325.71 216.486 333.548 184.112 335.243 177.196C332.828 176.347 327.362 174.438 321.939 172.189C308.381 166.546 306.686 163.831 306.855 161.752C306.983 160.352 307.152 158.4 333.675 148.089C346.386 143.125 359.224 138.585 359.351 138.543C360.114 138.288 360.961 138.67 361.258 139.434C361.512 140.198 361.131 141.046 360.368 141.343C337.446 149.447 312.787 159.248 309.906 162.134C310.287 162.812 312.448 165.061 323.676 169.686C330.54 172.529 337.361 174.778 337.446 174.82C338.166 175.075 338.59 175.838 338.421 176.602C338.336 176.984 328.888 214.492 326.43 237.997C326.388 238.719 325.752 239.27 324.99 239.27Z" fill="#202D37"/>
<path d="M356.301 192.98C355.496 192.98 354.818 192.301 354.818 191.495C354.818 190.689 355.496 190.01 356.301 190.01C363.546 190.01 367.783 186.785 368.164 180.93C368.207 180.124 368.927 179.487 369.732 179.53C370.537 179.572 371.172 180.293 371.13 181.1C370.622 188.525 365.071 192.98 356.301 192.98Z" fill="#202D37"/>
<path d="M372.316 253.654C372.274 253.654 372.189 253.654 372.147 253.654C371.342 253.569 370.749 252.848 370.833 252C371.935 241.816 373.503 229.597 375.494 215.68C378.078 197.435 380.451 182.712 380.451 182.543C380.578 181.821 381.214 181.27 381.934 181.312C386.807 181.397 391.043 181.185 394.518 180.633C401.763 179.488 404.136 177.324 404.898 176.136C405.407 175.33 405.534 174.439 405.237 173.505C404.305 170.408 394.052 167.692 380.324 168.583C379.519 168.626 378.799 168.032 378.756 167.183C378.714 166.377 379.307 165.656 380.155 165.613C392.357 164.849 406.296 166.716 408.118 172.656C408.669 174.439 408.415 176.178 407.44 177.748C405.619 180.633 401.466 182.627 395.026 183.603C391.679 184.112 387.739 184.367 383.205 184.325C382.57 188.271 380.578 200.999 378.46 216.147C376.511 230.021 374.943 242.198 373.842 252.339C373.714 253.103 373.079 253.654 372.316 253.654Z" fill="#202D37"/>
<path d="M382.994 176.178C382.273 176.178 381.638 175.626 381.511 174.905C381.384 174.099 381.977 173.335 382.782 173.25C388.756 172.444 395.45 172.741 395.747 172.784C396.552 172.826 397.188 173.505 397.145 174.353C397.103 175.16 396.382 175.796 395.577 175.754C395.493 175.754 388.883 175.414 383.163 176.22C383.121 176.178 383.079 176.178 382.994 176.178Z" fill="#202D37"/>
<path d="M380.747 142.786C380.747 142.786 391.212 137.949 399.008 146.647C408.075 156.873 398.288 167.735 398.076 168.074C392.314 166.928 385.874 166.886 385.874 166.886C386.509 177.239 382.273 178.851 380.451 178.596C378.586 178.342 379.264 174.693 379.264 174.693C353.292 165.698 361.384 143.55 361.384 143.55C356.47 145.586 347.318 144.483 347.106 144.568C350.072 129.378 374.053 131.203 380.747 142.786Z" fill="#202D37"/>
<path d="M380.79 180.124C380.578 180.124 380.409 180.124 380.197 180.082C379.435 179.954 378.799 179.572 378.375 178.978C377.697 178.045 377.613 176.73 377.655 175.754C369.52 172.699 363.885 168.032 360.961 161.837C357.953 155.515 358.546 149.193 359.267 145.756C354.987 146.647 349.734 146.265 347.742 146.138C347.488 146.138 347.276 146.096 347.191 146.096C346.81 146.138 346.429 146.011 346.132 145.756C345.708 145.417 345.539 144.865 345.624 144.356C346.895 138.034 351.64 133.706 358.674 132.518C367.444 131.033 376.935 134.682 381.341 141.004C384.519 139.986 393.332 138.076 400.111 145.714C408.839 155.557 401.721 165.953 399.306 168.923L399.221 169.007C398.882 169.474 398.289 169.686 397.738 169.601C393.84 168.838 389.603 168.583 387.358 168.456C387.442 173.293 386.425 176.73 384.307 178.681C383.332 179.572 382.019 180.124 380.79 180.124ZM380.748 177.154C381.002 177.154 381.638 177.111 382.358 176.475C383.29 175.626 384.773 173.25 384.392 167.013C384.349 166.589 384.519 166.207 384.815 165.91C385.112 165.613 385.493 165.443 385.917 165.443C386.171 165.443 391.891 165.528 397.484 166.504C400.153 162.982 404.56 155.133 397.95 147.665C391.001 139.858 381.511 144.101 381.426 144.144C380.748 144.483 379.901 144.186 379.519 143.55C376.087 137.652 367.19 134.088 359.224 135.403C356.131 135.913 350.92 137.61 349.013 143.21C351.852 143.38 357.487 143.55 360.834 142.192C361.385 141.98 362.021 142.107 362.444 142.489C362.868 142.913 362.995 143.507 362.826 144.059C362.783 144.144 359.86 152.46 363.715 160.564C366.427 166.25 371.85 170.535 379.816 173.293C380.494 173.547 380.917 174.226 380.79 174.99C380.578 175.796 380.578 176.772 380.748 177.154Z" fill="#202D37"/>
<path d="M398.078 214.152C391.553 218.48 383.375 220.134 376.978 215.891C379.604 197.435 381.935 182.796 381.935 182.796C387.146 182.881 391.383 182.627 394.773 182.075C390.875 193.913 391.468 204.266 395.196 204.817C399.306 205.454 400.874 204.096 402.865 202.653C404.857 201.296 406.382 208.594 398.078 214.152Z" fill="#202D37"/>
<path d="M385.452 219.88C382.104 219.88 378.927 218.989 376.173 217.164C375.707 216.867 375.452 216.273 375.537 215.722C378.122 197.477 380.494 182.754 380.494 182.584C380.621 181.863 381.257 181.312 381.977 181.354C386.85 181.439 391.087 181.227 394.561 180.675C395.069 180.59 395.578 180.802 395.917 181.184C396.256 181.566 396.34 182.118 396.213 182.627C393.078 192.174 393.078 200.15 394.688 202.781C394.942 203.163 395.197 203.417 395.451 203.46C398.671 203.969 399.942 203.078 401.637 201.847L402.06 201.55C402.781 201.041 403.586 200.956 404.348 201.296C405.28 201.72 405.874 202.823 406.001 204.266C406.213 207.109 404.475 211.776 398.967 215.467C394.434 218.395 389.773 219.88 385.452 219.88ZM378.588 215.17C383.799 218.14 390.705 217.334 397.273 212.964C401.637 210.079 402.654 206.939 402.865 205.751C402.95 205.242 402.992 204.817 402.95 204.52C401.128 205.836 399.137 207.024 394.942 206.387C394.137 206.26 393.036 205.793 392.104 204.351C389.9 200.787 390.155 192.598 392.654 183.942C389.858 184.239 386.68 184.409 383.164 184.366C382.57 188.185 380.664 200.447 378.588 215.17Z" fill="#202D37"/>
<path d="M44.2084 105.66C39.2935 105.66 33.8703 105.363 28.1928 105.023C24.3371 104.811 20.3121 104.599 16.3717 104.472C15.5667 104.429 14.9312 103.751 14.9312 102.944C14.9735 102.138 15.6514 101.459 16.4564 101.502C20.4392 101.629 24.4642 101.841 28.3199 102.096C45.0981 103.029 60.9866 103.92 62.5967 96.4527C62.8085 95.4768 63.0627 94.2464 63.3593 92.8462C68.1894 69.9343 73.528 46.0041 76.4091 41.9733C81.0697 35.3967 101.322 40.7853 103.61 41.4217C104.415 41.6339 104.881 42.44 104.627 43.2462C104.415 44.0524 103.61 44.5191 102.805 44.2645C94.9245 42.1006 81.4087 39.9791 78.7818 43.7129C75.9007 47.7861 68.8673 80.966 66.2404 93.4827C65.9439 94.8828 65.6896 96.1133 65.4778 97.0892C64.0372 104.005 55.6057 105.66 44.2084 105.66Z" fill="#202D37"/>
<path d="M30.0434 113.175C32.4092 110.806 32.4092 106.964 30.0434 104.594C27.6776 102.224 23.8419 102.224 21.476 104.594C19.1102 106.964 19.1102 110.806 21.476 113.175C23.8419 115.545 27.6776 115.545 30.0434 113.175Z" fill="#202D37"/>
<path d="M25.7788 115.632C22.0927 115.632 19.0845 112.62 19.0845 108.928C19.0845 105.237 22.0927 102.224 25.7788 102.224C29.465 102.224 32.4732 105.237 32.4732 108.928C32.4732 112.62 29.465 115.632 25.7788 115.632ZM25.7788 103.455C22.7706 103.455 20.3556 105.916 20.3556 108.886C20.3556 111.898 22.813 114.317 25.7788 114.317C28.787 114.317 31.2021 111.856 31.2021 108.886C31.2021 105.916 28.787 103.455 25.7788 103.455Z" fill="#202D37"/>
<path d="M52.258 115.546C55.6042 115.546 58.3168 112.83 58.3168 109.479C58.3168 106.128 55.6042 103.412 52.258 103.412C48.9118 103.412 46.1992 106.128 46.1992 109.479C46.1992 112.83 48.9118 115.546 52.258 115.546Z" fill="#202D37"/>
<path d="M52.2583 116.182C48.5722 116.182 45.564 113.17 45.564 109.479C45.564 105.787 48.5722 102.775 52.2583 102.775C55.9445 102.775 58.9527 105.787 58.9527 109.479C58.9527 113.17 55.9445 116.182 52.2583 116.182ZM52.2583 104.005C49.2501 104.005 46.835 106.466 46.835 109.436C46.835 112.449 49.2925 114.867 52.2583 114.867C55.2242 114.867 57.6816 112.406 57.6816 109.436C57.6816 106.466 55.2242 104.005 52.2583 104.005Z" fill="#202D37"/>
<path d="M15.2277 87.543C14.6769 87.543 14.1261 87.543 13.6177 87.543C12.8127 87.543 12.1348 86.8642 12.1348 86.058C12.1348 85.2519 12.8127 84.573 13.6177 84.573C27.1759 84.6578 66.1133 83.682 66.4947 83.6395C67.2997 83.6395 67.9776 84.276 68.0199 85.0821C68.0199 85.8883 67.3844 86.5672 66.5794 86.6096C66.1981 86.652 30.057 87.543 15.2277 87.543Z" fill="#202D37"/>
<path d="M73.6122 56.1022C71.1124 56.1022 12.8121 55.678 1.66898 54.6172C0.863964 54.5324 0.2708 53.8111 0.31317 53.0049C0.397908 52.1987 1.11818 51.6047 1.9232 51.6472C12.8969 52.7079 72.9766 53.1322 73.6122 53.1322C74.4172 53.1322 75.0951 53.8111 75.0951 54.6172C75.0951 55.4234 74.4595 56.1022 73.6122 56.1022Z" fill="#202D37"/>
<path d="M16.5841 87.076C16.1604 87.076 15.6943 86.8638 15.4401 86.5244C12.0929 82.3239 3.95801 63.9095 3.95801 53.387C3.95801 52.5808 4.63592 51.902 5.44094 51.902C6.24595 51.902 6.92386 52.5808 6.92386 53.387C6.92386 62.9761 14.8046 80.9237 17.7704 84.6999C18.2789 85.3364 18.1517 86.2698 17.5162 86.779C17.262 86.9911 16.923 87.076 16.5841 87.076Z" fill="#202D37"/>
<path d="M39.8019 71.2076C30.8195 71.2076 20.3967 71.2076 9.29592 71.2076C8.4909 71.2076 7.81299 70.5287 7.81299 69.7226C7.81299 68.9164 8.4909 68.2375 9.29592 68.2375C42.3864 68.28 69.6722 68.2375 69.9688 68.2375C70.7738 68.2375 71.4518 68.9164 71.4518 69.7226C71.4518 70.5287 70.7738 71.2076 69.9688 71.2076C69.757 71.2076 57.6394 71.2076 39.8019 71.2076Z" fill="#202D37"/>
<path d="M29.5052 87.0761C28.8274 87.0761 28.192 86.567 28.065 85.8881C26.0741 75.2807 27.1331 54.8722 27.1754 53.9812C27.2178 53.175 27.8955 52.5386 28.7427 52.581C29.5475 52.6234 30.1829 53.3447 30.1406 54.1509C30.1406 54.363 29.0392 75.0686 30.9877 85.3365C31.1572 86.1427 30.6065 86.9064 29.8017 87.0761C29.6746 87.0761 29.5899 87.0761 29.5052 87.0761Z" fill="#202D37"/>
<path d="M50.9024 86.6094C50.1399 86.6094 49.4622 86.0154 49.4198 85.2517C49.4198 85.1244 48.4032 70.6984 50.267 54.2357C50.3517 53.4296 51.1142 52.8356 51.919 52.9204C52.7238 53.0053 53.3168 53.769 53.2321 54.5752C51.3683 70.7408 52.3849 84.9122 52.3849 85.0395C52.4273 85.8457 51.8343 86.567 51.0295 86.6094C50.9871 86.6094 50.9447 86.6094 50.9024 86.6094Z" fill="#202D37"/>
<path d="M409.432 454.812C408.542 454.812 407.695 454.727 406.932 454.6C406.127 454.472 405.576 453.709 405.703 452.902C405.83 452.096 406.593 451.545 407.398 451.672C412.609 452.478 423.88 450.611 441.209 428.675C474.003 387.179 483.451 363.504 477.223 338.173C470.528 310.934 439.302 292.519 429.896 287.513C424.939 284.882 414.685 278.645 403.797 271.983C390.747 264.049 374.562 254.205 372.231 253.611C371.765 253.654 370.833 254.036 369.816 254.502C365.791 256.242 358.249 259.509 344.734 256.157C331.896 253.017 328.676 246.653 326.557 242.41C325.752 240.798 325.117 239.567 324.227 239.016C320.668 236.852 286.645 234.009 278.553 233.839H277.705C264.401 233.585 251.902 232.566 250.547 226.881C249.826 223.784 248.004 221.068 239.742 222.341C236.395 222.85 234.15 222.468 232.667 221.11C230.972 219.541 230.887 217.037 231.057 214.788C231.141 213.855 231.353 210.97 226.608 210.546L226.354 210.503C221.693 210.121 220.295 208.424 220.041 198.199C219.829 190.434 201.652 173.377 192.924 165.188C190.17 162.6 188.179 160.733 187.289 159.715C184.62 156.618 171.358 153.096 163.393 152.035C162.588 151.908 161.995 151.187 162.122 150.381C162.249 149.574 162.969 148.98 163.774 149.108C170.214 149.956 185.679 153.351 189.535 157.806C190.297 158.697 192.373 160.649 194.958 163.067C208.389 175.669 222.795 189.84 223.006 198.156C223.134 202.823 223.515 205.539 224.193 206.684C224.574 207.321 224.955 207.448 226.608 207.575L226.862 207.618C231.65 208.042 234.319 210.8 234.022 215.043C233.853 217.207 234.065 218.395 234.7 218.947C235.421 219.625 236.988 219.753 239.319 219.413C242.327 218.947 251.436 217.589 253.47 226.202C253.597 226.796 254.699 228.748 262.791 229.893C268.045 230.657 274.146 230.784 277.832 230.827H278.68C283.764 230.912 321.007 233.5 325.837 236.427C327.447 237.403 328.294 239.058 329.269 241.01C331.26 244.956 334.014 250.387 345.496 253.187C358.08 256.284 364.732 253.399 368.715 251.66C370.24 251.023 371.342 250.514 372.401 250.556C374.265 250.599 381.849 255.054 405.407 269.353C416.253 275.972 426.507 282.209 431.379 284.797C441.082 289.931 473.198 308.939 480.189 337.367C486.671 363.716 477.096 388.07 443.624 430.415C428.074 450.102 416.762 454.812 409.432 454.812Z" fill="#202D37"/>
<path d="M383.503 422.481C382.867 422.481 382.274 422.056 382.062 421.42C379.139 411.152 379.774 408.776 382.486 403.981C383.545 402.157 387.273 397.702 392.061 392.016C400.111 382.427 412.271 368.001 413.839 362.698C416.127 354.975 413.034 343.944 375.495 315.856C374.859 315.346 374.69 314.455 375.198 313.776C375.707 313.14 376.596 312.97 377.274 313.479C414.093 341.016 419.644 353.406 416.678 363.504C414.941 369.359 403.543 382.979 394.349 393.883C389.858 399.229 386.002 403.812 385.113 405.382C382.782 409.455 382.274 411.025 384.986 420.529C385.197 421.335 384.774 422.141 383.969 422.353C383.757 422.481 383.63 422.481 383.503 422.481Z" fill="#202D37"/>
<path d="M271.774 306.393C271.731 306.393 271.647 306.393 271.604 306.393C264.444 305.502 200.975 296.932 179.451 278.135C155.428 257.133 131.192 196.968 130.98 196.374C128.608 190.306 128.311 185.342 129.794 176.008C129.921 175.202 130.684 174.65 131.489 174.777C132.294 174.905 132.845 175.668 132.718 176.474C131.319 185.3 131.531 189.712 133.734 195.313C133.946 195.907 157.885 255.351 181.4 275.929C202.246 294.174 264.91 302.575 271.986 303.466C272.791 303.551 273.384 304.314 273.257 305.12C273.172 305.842 272.494 306.393 271.774 306.393Z" fill="#202D37"/>
<path d="M255.758 336.01C255.504 336.01 255.207 335.925 254.995 335.797C254.317 335.373 254.063 334.44 254.487 333.761C257.707 328.5 273.85 301.472 277.832 284.627C278.002 283.821 278.807 283.312 279.612 283.524C280.417 283.694 280.883 284.5 280.714 285.306C276.646 302.618 260.249 330.027 257.029 335.331C256.732 335.755 256.224 336.01 255.758 336.01Z" fill="#202D37"/>
<path d="M397.992 461.601C397.018 461.601 394.984 461.601 383.968 448.32C380.493 444.12 373.545 435.337 373.206 434.022C372.02 429.482 380.027 422.057 382.527 419.893C382.866 419.596 383.29 419.468 383.714 419.553C384.137 419.596 384.519 419.85 384.73 420.19C389.984 428.166 404.432 449.466 408.034 452.139C408.373 452.394 408.584 452.733 408.627 453.157C408.669 453.582 408.542 453.964 408.288 454.261C407.271 455.491 402.017 461.601 397.992 461.601ZM376.045 433.131C376.638 434.191 381.044 440.089 386.213 446.369C395.238 457.273 397.653 458.503 398.034 458.631C399.772 458.546 402.865 455.83 405.068 453.454C399.814 448.023 387.061 429.1 383.205 423.287C379.307 426.894 375.791 431.391 376.045 433.131Z" fill="#202D37"/>
<path d="M347.064 495.205C345.962 495.205 345.073 494.866 344.48 494.187C343.632 493.253 343.463 491.896 344.056 490.071C341.853 491.344 339.565 492.235 338.082 491.683C337.192 491.344 336.641 490.623 336.429 489.604C335.794 485.955 339.395 481.925 343.251 477.682C345.751 474.881 348.335 471.996 349.225 469.705C350.581 466.056 350.92 463.341 350.92 461.983C350.835 462.025 350.75 462.068 350.665 462.068C345.369 464.104 339.48 466.183 336.472 464.656C335.582 464.189 334.989 463.468 334.735 462.534C333.802 459.055 340.115 454.897 353.335 446.496C360.368 442.041 368.376 436.992 373.757 432.452C374.392 431.943 375.324 431.985 375.833 432.622C376.341 433.258 376.299 434.192 375.663 434.701C370.113 439.368 362.02 444.502 354.902 448.999C350.242 451.969 345.835 454.727 342.573 457.103C338.209 460.286 337.658 461.474 337.616 461.771C337.658 461.856 337.7 461.898 337.828 461.983C339.946 463.044 347.234 460.201 349.649 459.267C351.004 458.758 351.386 458.588 351.725 458.588C352.318 458.546 352.911 458.801 353.292 459.31C354.648 461.092 353.589 466.48 352.021 470.723C350.962 473.566 348.166 476.663 345.496 479.633C342.531 482.901 339.226 486.634 339.353 488.883C340.582 488.756 344.141 486.719 347.149 484.301C347.7 483.834 348.547 483.876 349.055 484.343C349.606 484.852 349.691 485.658 349.31 486.252C346.556 490.495 346.683 491.896 346.725 492.15C347.022 492.235 348.335 492.277 351.047 490.92C351.64 490.623 352.403 490.75 352.826 491.259C353.038 491.514 353.419 491.853 354.267 491.896C357.953 492.023 365.283 486.125 369.011 482.391C369.562 481.84 370.41 481.797 371.003 482.264C371.596 482.731 371.723 483.579 371.299 484.216C370.155 486.04 368.588 489.307 368.884 490.623V490.665C370.24 490.198 374.35 487.016 381.044 479.718C387.442 472.717 393.331 465.038 396.763 459.267C397.187 458.546 398.077 458.334 398.797 458.758C399.517 459.182 399.729 460.074 399.305 460.795C395.619 466.99 389.137 475.391 382.315 482.731C370.664 495.29 368.461 494.017 367.528 493.465C366.766 492.999 366.215 492.277 366.003 491.386C365.834 490.665 365.876 489.901 366.003 489.053C362.444 491.896 357.741 494.993 354.14 494.908C353.123 494.866 352.233 494.569 351.47 494.059C349.733 494.823 348.25 495.205 347.064 495.205Z" fill="#202D37"/>
<path d="M348.039 486.973C347.615 486.973 347.192 486.804 346.895 486.464C346.344 485.828 346.429 484.894 347.065 484.385C353.081 479.209 359.267 472.25 360.326 470.256C360.707 469.535 361.597 469.238 362.317 469.662C363.038 470.044 363.334 470.935 362.911 471.656C361.555 474.16 355.03 481.415 348.929 486.634C348.717 486.888 348.378 486.973 348.039 486.973Z" fill="#202D37"/>
<path d="M351.682 493.804C351.216 493.804 350.75 493.592 350.453 493.168C349.987 492.489 350.157 491.556 350.835 491.089C358.673 485.7 366.639 475.645 366.723 475.56C367.232 474.923 368.164 474.796 368.799 475.305C369.435 475.814 369.562 476.748 369.054 477.384C368.715 477.808 360.707 487.907 352.53 493.507C352.275 493.72 351.979 493.804 351.682 493.804Z" fill="#202D37"/>
<path d="M369.987 484.979C369.648 484.979 369.309 484.852 369.012 484.597C368.377 484.046 368.334 483.112 368.885 482.518C369.775 481.457 370.792 480.227 371.258 479.591C371.554 479.209 372.486 478.021 373.63 478.869C374.097 479.209 374.563 480.057 373.927 480.991C373.885 481.076 373.8 481.16 373.715 481.203C373.673 481.245 373.63 481.288 373.588 481.373C373.08 482.009 372.105 483.324 371.131 484.427C370.834 484.809 370.41 484.979 369.987 484.979Z" fill="#202D37"/>
<path d="M202.542 423.33C201.779 423.33 201.144 422.736 201.059 421.972C200.762 418.577 199.322 400.418 198.093 377.803C197.373 364.183 197.119 354.764 200.466 347.848C204.11 340.253 211.863 336.434 225.591 335.501C236.31 334.737 256.817 332.955 280.586 330.876C316.855 327.694 361.978 323.705 387.823 322.178C388.628 322.135 389.348 322.772 389.391 323.578C389.433 324.384 388.798 325.105 387.993 325.148C362.19 326.675 317.109 330.621 280.841 333.846C257.071 335.925 236.565 337.749 225.803 338.471C213.261 339.362 206.313 342.629 203.178 349.163C200.169 355.4 200.424 364.522 201.101 377.633C202.33 400.206 203.771 418.323 204.025 421.717C204.11 422.523 203.474 423.245 202.669 423.33C202.627 423.33 202.584 423.33 202.542 423.33Z" fill="#202D37"/>
<path d="M205.635 484.64C199.365 484.64 195.636 483.112 194.026 480.057C188.391 469.111 189.238 438.477 191.357 428.888C193.602 418.705 201.61 420.062 207.457 421.038C207.923 421.123 208.347 421.208 208.813 421.25C214.575 422.184 241.607 417.432 251.903 414.843C257.919 413.316 263.215 412.255 266.901 414.759C269.444 416.456 270.927 419.596 271.647 424.602C272.748 432.621 273.765 445.562 274.57 461.94C274.952 470.129 269.91 471.826 255.292 474.627C251.776 475.305 247.03 476.536 241.565 477.978C232.455 480.355 222.117 483.028 213.347 484.216C210.381 484.47 207.839 484.64 205.635 484.64ZM194.238 429.482C192.035 439.495 191.781 469.196 196.653 478.657C197.67 480.609 201.314 482.646 212.881 481.118C221.482 479.973 231.735 477.342 240.76 474.966C246.31 473.523 251.098 472.293 254.699 471.572C270.291 468.602 271.816 467.117 271.562 461.983C270.757 445.69 269.783 432.876 268.681 424.899C268.13 420.868 266.986 418.323 265.249 417.135C262.834 415.48 258.936 416.031 252.623 417.644C243.132 420.062 214.914 425.154 208.347 424.136C207.881 424.051 207.415 423.966 206.991 423.923C200.043 422.778 195.763 422.566 194.238 429.482Z" fill="#202D37"/>
<path d="M249.022 540.392C216.651 540.392 210.635 531.015 209.449 522.996C208.389 515.995 206.398 499.702 205.466 483.24C205.423 482.433 206.059 481.712 206.864 481.67C207.669 481.627 208.389 482.264 208.432 483.07C209.364 499.405 211.355 515.571 212.414 522.529C213.008 526.56 214.999 531.609 225.295 534.706C238.133 538.568 260.504 538.271 291.772 533.731C323.168 529.191 363.97 522.657 400.026 516.886C438.031 510.819 470.825 505.557 482.138 504.327C503.111 502.036 514.889 499.448 512.728 472.717C510.61 446.708 501.585 353.236 498.874 333.336C496.332 314.795 489.807 313.098 465.19 314.455C464.385 314.498 463.665 313.861 463.622 313.055C463.58 312.249 464.216 311.528 465.021 311.485C478.07 310.764 486.205 310.934 491.798 313.819C497.391 316.746 500.314 322.262 501.755 332.912C504.509 352.854 513.533 446.411 515.652 472.463C517.982 501.315 504.678 504.879 482.434 507.297C471.206 508.528 438.413 513.789 400.45 519.856C364.436 525.627 323.592 532.161 292.154 536.701C274.147 539.289 260.08 540.392 249.022 540.392Z" fill="#202D37"/>
<path d="M248.64 458.037C242.539 458.037 237.582 453.072 237.582 446.962C237.582 440.853 242.539 435.888 248.64 435.888C254.742 435.888 259.699 440.853 259.699 446.962C259.699 453.072 254.742 458.037 248.64 458.037ZM248.64 438.858C244.192 438.858 240.548 442.507 240.548 446.962C240.548 451.418 244.192 455.067 248.64 455.067C253.089 455.067 256.733 451.418 256.733 446.962C256.733 442.507 253.089 438.858 248.64 438.858Z" fill="#202D37"/>
<path d="M356.301 433.767C350.199 433.767 345.242 428.803 345.242 422.693C345.242 416.583 350.199 411.619 356.301 411.619C362.402 411.619 367.359 416.583 367.359 422.693C367.359 428.803 362.402 433.767 356.301 433.767ZM356.301 414.589C351.852 414.589 348.208 418.238 348.208 422.693C348.208 427.148 351.852 430.797 356.301 430.797C360.749 430.797 364.393 427.148 364.393 422.693C364.393 418.238 360.749 414.589 356.301 414.589Z" fill="#202D37"/>
<path d="M340.497 412.722C340.328 412.722 340.116 412.68 339.947 412.595C339.184 412.298 338.803 411.407 339.142 410.643C340.836 406.442 345.539 403.175 351.725 401.86C357.699 400.587 366.004 401.096 371.427 406.315C372.02 406.867 372.02 407.843 371.469 408.394C370.919 408.988 369.944 408.988 369.393 408.437C365.622 404.788 358.928 403.345 352.361 404.745C347.149 405.848 343.251 408.479 341.896 411.746C341.641 412.383 341.091 412.722 340.497 412.722Z" fill="#202D37"/>
<path d="M336.048 400.333C335.879 400.333 335.709 400.29 335.54 400.248C334.777 399.951 334.396 399.102 334.65 398.338C336.726 392.823 342.531 388.58 350.2 386.967C359.055 385.143 367.783 387.392 372.994 392.823C373.545 393.417 373.545 394.35 372.952 394.902C372.359 395.453 371.427 395.453 370.876 394.859C365.495 389.258 356.979 388.58 350.835 389.852C344.268 391.21 339.141 394.859 337.447 399.314C337.235 399.951 336.684 400.333 336.048 400.333Z" fill="#202D37"/>
<path d="M326.939 389.937C326.727 389.937 326.516 389.895 326.346 389.81C325.584 389.471 325.245 388.58 325.584 387.858C328.21 381.918 335.244 377.293 344.819 375.172C357.403 372.414 370.41 374.875 377.91 381.494C378.545 382.046 378.588 382.979 378.037 383.573C377.486 384.209 376.554 384.252 375.961 383.7C369.139 377.718 357.149 375.469 345.455 378.057C336.939 379.924 330.498 384.04 328.295 389.046C328.041 389.598 327.49 389.937 326.939 389.937Z" fill="#202D37"/>
<path d="M130.981 178.215C130.642 178.215 130.261 178.13 129.879 177.875C127.507 176.56 119.922 166.462 121.405 161.879C123.82 154.327 145.429 140.495 156.953 139.137C157.928 139.01 159.453 139.434 162.207 143.635C163.563 145.671 165.003 148.344 165.215 149.829C165.47 151.357 164.495 151.993 163.86 152.12C160.894 152.757 136.997 172.062 132.294 177.621C131.998 177.96 131.532 178.215 130.981 178.215ZM157.08 142.15C145.98 143.592 126.108 156.873 124.202 162.855C123.439 165.274 128.481 172.953 130.769 174.948C135.896 169.601 155.894 152.757 162.122 149.702C161.36 147.581 158.352 142.828 157.08 142.15Z" fill="#202D37"/>
<path d="M120.262 152.502C120.007 152.502 119.753 152.417 119.499 152.29C115.389 149.914 112.889 144.356 113.101 138.118C113.228 134.639 114.16 131.627 115.813 129.336C109.457 129.76 99.4158 129.633 98.0176 124.414C96.1957 117.625 108.398 114.273 120.219 111.006C120.982 110.794 121.744 110.582 122.465 110.37C119.838 101.459 116.321 91.7431 114.754 90.6399C114.203 90.2156 113.271 89.7065 112.211 89.07C107.72 86.3545 100.178 81.857 99.2463 75.9169C98.6532 72.0558 99.7124 68.8312 102.085 67.2613C103.949 66.0733 106.28 66.1157 108.229 67.3886C109.203 68.025 111.576 69.3828 114.372 70.9951C125.939 77.6565 131.617 81.0933 132.676 82.7905C134.159 85.1665 153.479 134.894 155.64 140.579C155.937 141.343 155.555 142.192 154.793 142.489C154.03 142.786 153.183 142.404 152.886 141.64C144.37 119.662 131.278 86.2273 130.176 84.3604C129.117 82.9178 118.185 76.5958 112.932 73.5833C110.008 71.8861 107.678 70.5708 106.619 69.8919C105.644 69.2555 104.542 69.2131 103.695 69.7646C102.339 70.6557 101.746 72.7771 102.17 75.4502C102.89 80.0326 109.669 84.1058 113.737 86.5243C114.838 87.2031 115.813 87.7547 116.491 88.2639C119.711 90.5975 124.371 106.296 125.727 111.048C125.854 111.43 125.77 111.855 125.6 112.194C125.388 112.534 125.092 112.788 124.71 112.915C123.524 113.255 122.295 113.594 120.982 113.934C112.55 116.267 99.7971 119.746 100.856 123.692C101.704 126.917 112.805 126.96 120.007 125.984C120.728 125.899 121.405 126.323 121.617 127.002C121.829 127.681 121.49 128.445 120.855 128.784C118.016 130.184 116.194 133.748 116.025 138.246C115.855 143.295 117.804 147.92 120.939 149.744C121.66 150.168 121.872 151.059 121.49 151.781C121.278 152.247 120.77 152.502 120.262 152.502Z" fill="#202D37"/>
<path d="M122.803 163.831C122.719 163.831 122.634 163.831 122.549 163.789C119.329 163.237 113.058 159.716 107.847 154.327C103.229 149.533 97.7208 141.556 97.8479 130.821C97.8479 130.015 98.5258 129.336 99.3308 129.336C100.136 129.336 100.814 130.015 100.814 130.821C100.687 140.537 105.729 147.835 109.965 152.248C115.05 157.509 120.643 160.437 123.015 160.861C123.82 160.988 124.371 161.752 124.244 162.558C124.117 163.322 123.481 163.831 122.803 163.831Z" fill="#202D37"/>
<path d="M111.321 116.692C110.77 116.692 110.262 116.395 109.965 115.843C106.787 109.309 104.796 100.866 108.609 96.665C110.262 94.883 113.567 93.3131 120.219 95.9013C120.981 96.1983 121.362 97.0469 121.066 97.8106C120.769 98.5744 119.922 98.9562 119.159 98.6592C116.363 97.5561 112.634 96.665 110.813 98.6592C108.567 101.12 109.287 107.654 112.634 114.528C112.973 115.249 112.677 116.14 111.956 116.522C111.745 116.649 111.533 116.692 111.321 116.692Z" fill="#202D37"/>
<path d="M102.254 120.638C101.788 120.638 101.28 120.383 101.025 119.959C97.6358 114.782 95.602 106.975 98.5679 102.733C99.7966 100.95 102.381 99.126 107.762 100.399C108.567 100.569 109.033 101.375 108.864 102.181C108.694 102.987 107.889 103.454 107.084 103.284C104.076 102.563 102.042 102.945 100.983 104.43C98.9492 107.357 100.644 113.976 103.483 118.304C103.949 118.983 103.737 119.916 103.059 120.341C102.847 120.553 102.551 120.638 102.254 120.638Z" fill="#202D37"/>
<path d="M104.161 133.664C101.45 133.664 98.0602 132.306 94.3741 129.633C89.1626 125.857 86.6205 118.389 88.9508 113.637C89.7558 112.025 92.2979 108.503 98.9923 110.497C99.7973 110.709 100.221 111.558 100.009 112.364C99.755 113.17 98.9499 113.595 98.1449 113.382C95.857 112.704 92.8487 112.407 91.5777 114.995C90.0524 118.092 91.7048 124.117 96.0688 127.257C100.984 130.821 104.331 131.16 105.687 130.354C106.365 129.972 106.661 129.166 106.534 128.063C106.449 127.257 107.042 126.536 107.848 126.451C108.653 126.366 109.373 126.96 109.458 127.766C109.669 130.057 108.822 131.924 107.127 132.942C106.365 133.409 105.348 133.664 104.161 133.664Z" fill="#202D37"/>
<path d="M18.744 350.563C9.6346 350.563 7.81271 347.805 6.49926 342.628C4.84685 336.052 3.66052 327.905 1.45731 307.751C1.41494 307.242 1.37257 306.776 1.28783 306.309L1.03362 304.145C0.525183 299.435 0.101492 295.744 0.0167534 292.774C-0.237463 284.161 2.34707 281.233 11.4989 279.79C37.556 275.675 72.6802 272.535 85.9418 271.347C87.2552 271.22 88.3569 271.135 89.2042 271.05C96.5765 270.371 100.644 272.917 102.89 279.578C103.864 282.464 104.5 286.24 104.923 291.204L104.966 291.628C105.05 292.434 104.415 293.156 103.61 293.241C102.805 293.325 102.085 292.689 102 291.883L101.957 291.459C101.576 286.749 100.941 283.185 100.051 280.554C98.2289 275.208 95.4749 273.511 89.4161 274.02C88.5687 274.105 87.5095 274.19 86.1536 274.317C72.9344 275.505 37.8526 278.602 11.9225 282.718C4.21132 283.949 2.72839 285.603 2.94024 292.689C3.02498 295.532 3.44867 299.223 3.9571 303.848L4.21132 306.012C4.25369 306.479 4.33842 306.988 4.38079 307.454C6.54163 327.439 7.72798 335.5 9.33801 341.907C10.6515 347.041 11.3717 349.884 39.3779 345.302C40.1829 345.174 40.9455 345.726 41.0727 346.532C41.1998 347.338 40.649 348.102 39.8439 348.229C30.2261 349.799 23.4894 350.563 18.744 350.563Z" fill="#202D37"/>
<path d="M103.441 291.289C86.8743 293.538 34.082 300.666 2.64398 305.121C2.05081 299.902 1.58474 295.871 1.5 292.689C24.21 290.101 82.8915 282.463 101.492 280.045C102.424 282.845 103.059 286.494 103.441 291.289Z" fill="#202D37"/>
<path d="M2.64426 305.757C2.51716 305.757 2.34767 305.715 2.26293 305.63C2.13582 305.545 2.05109 305.375 2.00872 305.206L1.88161 304.06C1.37318 299.393 0.949485 295.659 0.864746 292.731C0.864746 292.392 1.11896 292.137 1.41554 292.095C25.1 289.38 88.8659 281.063 101.365 279.451C101.661 279.409 101.958 279.578 102.043 279.875C102.975 282.676 103.653 286.409 104.034 291.289C104.077 291.628 103.822 291.925 103.483 291.968L103.102 292.01C85.9848 294.344 33.8705 301.387 2.68662 305.8C2.72899 305.757 2.68663 305.757 2.64426 305.757ZM2.1782 293.283C2.30531 296.083 2.68663 299.563 3.19506 303.933L3.23743 304.442C34.3789 300.072 85.5187 293.113 102.763 290.78C102.382 286.579 101.831 283.312 101.026 280.766C87.4677 282.506 25.9898 290.525 2.1782 293.283Z" fill="#202D37"/>
<path d="M17.9393 323.153C16.753 323.153 15.7785 323.069 15.0582 322.941C14.5922 322.856 13.194 322.517 12.7279 321.286C12.3042 320.098 11.6263 317.722 11.2026 315.601C10.44 311.782 10.7366 310.509 11.4145 309.788C13.4058 307.667 25.4387 306.309 29.8028 306.691C31.6247 306.86 32.5992 307.242 33.1076 308.048C34.3787 309.958 36.4548 317.51 33.9973 320.056C32.3449 321.668 23.3203 323.153 17.9393 323.153ZM15.3972 319.971C17.7699 320.905 30.1841 319.123 31.8789 317.892C32.5992 317.001 31.8365 311.782 30.7349 309.788C29.9299 309.491 26.8793 309.364 22.0916 309.915C17.5157 310.467 14.5498 311.273 13.7024 311.697C13.5753 312.97 14.5074 317.341 15.3972 319.971ZM12.4737 310.722L13.5329 311.74L12.4737 310.722Z" fill="#202D37"/>
<path d="M217.753 407.63C216.99 407.63 216.312 407.036 216.27 406.23C216.101 403.387 215.889 400.587 215.677 397.829L215.507 395.665C215.465 394.859 216.058 394.138 216.863 394.095C217.668 394.053 218.388 394.647 218.431 395.453L218.6 397.617C218.812 400.375 219.024 403.175 219.194 406.06C219.236 406.867 218.643 407.588 217.795 407.63C217.838 407.63 217.795 407.63 217.753 407.63ZM216.397 386.458C215.592 386.458 214.957 385.822 214.914 385.015C214.829 383.191 214.787 381.536 214.787 380.009C214.787 377.887 214.872 376.02 214.999 374.238C215.041 373.432 215.762 372.796 216.609 372.881C217.414 372.923 218.05 373.644 217.965 374.493C217.838 376.19 217.753 377.972 217.753 380.009C217.753 381.494 217.795 383.106 217.838 384.931C217.88 385.737 217.245 386.458 216.397 386.458C216.44 386.458 216.397 386.458 216.397 386.458ZM218.77 365.583C218.558 365.583 218.346 365.54 218.177 365.455C217.414 365.116 217.117 364.225 217.456 363.504C218.643 360.873 220.295 358.794 222.329 357.309C223.176 356.673 224.278 356.079 225.549 355.527C226.312 355.187 227.159 355.569 227.498 356.291C227.837 357.054 227.456 357.903 226.735 358.242C225.676 358.709 224.786 359.176 224.066 359.685C222.414 360.915 221.1 362.57 220.126 364.734C219.871 365.243 219.321 365.583 218.77 365.583ZM236.353 355.527C235.633 355.527 235.04 355.018 234.913 354.297C234.785 353.49 235.294 352.727 236.099 352.557C239.192 352.005 242.793 351.496 246.734 351.072C247.539 350.987 248.259 351.581 248.344 352.387C248.428 353.193 247.835 353.915 247.03 353.999C243.175 354.381 239.658 354.891 236.65 355.442C236.523 355.527 236.438 355.527 236.353 355.527ZM257.453 353.278C256.69 353.278 256.012 352.684 255.97 351.878C255.928 351.072 256.563 350.351 257.368 350.308C262.453 350.011 266.52 349.926 268.045 349.926C268.045 349.926 268.045 349.926 268.088 349.926C268.893 349.926 269.571 350.563 269.571 351.369C269.571 352.175 268.935 352.854 268.13 352.896C266.647 352.939 262.622 352.981 257.58 353.278C257.495 353.278 257.453 353.278 257.453 353.278Z" fill="#202D37"/>
<path d="M444.769 493.041C444.006 493.041 443.371 492.489 443.286 491.726C443.201 490.919 443.794 490.156 444.599 490.071C448.158 489.647 451.675 489.222 455.107 488.755C455.912 488.628 456.675 489.222 456.759 490.028C456.886 490.835 456.293 491.598 455.488 491.683C452.056 492.15 448.497 492.574 444.938 492.998C444.896 492.998 444.854 493.041 444.769 493.041ZM465.826 490.241C465.106 490.241 464.471 489.731 464.343 488.968C464.216 488.161 464.767 487.398 465.572 487.27C469.47 486.676 472.987 486.082 475.995 485.488C476.8 485.319 477.563 485.87 477.732 486.676C477.902 487.483 477.351 488.246 476.546 488.416C473.495 489.01 469.979 489.604 466.038 490.198C465.996 490.241 465.911 490.241 465.826 490.241ZM486.63 485.998C485.994 485.998 485.443 485.616 485.232 484.979C484.977 484.216 485.401 483.367 486.164 483.112C486.715 482.943 487.223 482.731 487.647 482.561C490.189 481.5 491.841 479.803 492.858 477.215C493.155 476.451 494.002 476.069 494.765 476.366C495.527 476.663 495.909 477.512 495.612 478.275C494.299 481.67 492.095 483.961 488.791 485.319C488.282 485.531 487.731 485.743 487.096 485.955C486.926 485.955 486.757 485.998 486.63 485.998ZM495.612 468.771C494.807 468.771 494.129 468.135 494.129 467.286C494.087 464.486 493.875 461.049 493.451 456.849C493.366 456.042 493.96 455.321 494.765 455.236C495.57 455.151 496.29 455.745 496.375 456.552C496.798 460.837 497.053 464.359 497.053 467.286C497.095 468.092 496.459 468.771 495.612 468.771ZM493.663 447.641C492.943 447.641 492.307 447.09 492.18 446.369C491.756 443.186 491.29 439.749 490.782 436.101L490.74 435.888C490.612 435.082 491.206 434.319 492.011 434.234C492.816 434.106 493.578 434.7 493.663 435.507L493.705 435.719C494.214 439.368 494.68 442.804 495.104 446.029C495.231 446.835 494.638 447.599 493.833 447.684C493.79 447.641 493.748 447.641 493.663 447.641Z" fill="#202D37"/>
<path d="M258.936 522.275C254.911 522.232 251.309 522.02 248.174 521.638C247.369 521.553 246.776 520.79 246.903 519.983C246.988 519.177 247.75 518.583 248.555 518.711C251.564 519.092 255.038 519.305 258.936 519.347C259.741 519.347 260.419 520.026 260.419 520.832C260.419 521.596 259.741 522.275 258.936 522.275ZM269.486 521.935C268.723 521.935 268.045 521.341 268.003 520.535C267.961 519.729 268.596 519.008 269.401 518.965C271.731 518.838 274.231 518.626 276.858 518.414C277.663 518.329 278.383 518.965 278.468 519.771C278.553 520.577 277.917 521.299 277.112 521.384C274.485 521.638 271.943 521.808 269.571 521.935C269.571 521.935 269.528 521.935 269.486 521.935ZM238.175 519.008C237.963 519.008 237.751 518.965 237.582 518.88C233.684 517.141 230.93 514.68 229.15 511.328C228.769 510.607 229.023 509.715 229.743 509.334C230.464 508.952 231.353 509.206 231.735 509.928C233.218 512.643 235.506 514.68 238.768 516.165C239.531 516.504 239.87 517.395 239.531 518.117C239.276 518.668 238.726 519.008 238.175 519.008ZM227.837 501.908C227.074 501.908 226.439 501.314 226.354 500.551C226.142 498.09 226.057 495.502 225.972 492.744C225.93 491.81 225.93 490.834 225.888 489.859C225.845 489.052 226.481 488.331 227.328 488.331C228.133 488.289 228.854 488.925 228.854 489.774C228.896 490.75 228.896 491.725 228.938 492.659C229.023 495.374 229.108 497.92 229.277 500.296C229.362 501.102 228.727 501.824 227.921 501.908C227.921 501.908 227.879 501.908 227.837 501.908Z" fill="#202D37"/>
<path d="M41.3278 313.14C68.0628 302.702 103.187 292.604 112.762 289.974C122.338 287.301 127.846 283.991 132.718 296.083C137.549 308.176 144.582 328.627 147.336 334.694C150.09 340.762 152.547 345.938 136.955 351.369C121.363 356.8 87.3409 367.577 73.2743 373.602C59.2076 379.627 54.4199 381.579 46.7934 363.758C39.1669 345.938 35.8197 336.01 32.981 327.311C30.0999 318.529 35.5655 315.389 41.3278 313.14Z" fill="#FBD931"/>
<path d="M111.707 327.894C116.669 326.709 119.733 321.72 118.55 316.751C117.367 311.782 112.386 308.714 107.424 309.899C102.462 311.084 99.3987 316.073 100.581 321.042C101.764 326.011 106.745 329.079 111.707 327.894Z" fill="#FFFEF2"/>
<path d="M109.584 329.645C103.694 329.645 98.8643 324.851 98.8643 318.911C98.8643 313.013 103.652 308.176 109.584 308.176C115.515 308.176 120.303 312.971 120.303 318.911C120.303 324.851 115.473 329.645 109.584 329.645ZM109.584 311.146C105.304 311.146 101.83 314.625 101.83 318.911C101.83 323.196 105.304 326.675 109.584 326.675C113.863 326.675 117.337 323.196 117.337 318.911C117.337 314.625 113.863 311.146 109.584 311.146Z" fill="#202D37"/>
<path d="M122.423 326.038C122.296 326.038 122.168 326.038 122.041 326.038C116.152 325.826 111.491 320.862 111.703 314.964C111.915 309.067 116.872 304.399 122.762 304.612C128.651 304.824 133.312 309.788 133.1 315.686C132.93 321.456 128.143 326.038 122.423 326.038ZM114.669 315.007C114.584 317.086 115.347 319.038 116.745 320.565C118.143 322.092 120.092 322.941 122.126 323.026C124.202 323.111 126.151 322.347 127.676 320.947C129.202 319.547 130.049 317.595 130.134 315.558C130.261 311.273 126.914 307.666 122.635 307.539C118.398 307.369 114.796 310.764 114.669 315.007Z" fill="#202D37"/>
<path d="M119.965 339.573C119.371 339.573 118.778 339.192 118.566 338.555C118.312 337.791 118.693 336.943 119.498 336.646C127.125 334.015 133.226 331.979 133.269 331.979C134.031 331.724 134.879 332.148 135.133 332.912C135.387 333.676 134.963 334.524 134.201 334.779C134.158 334.779 128.057 336.815 120.473 339.446C120.303 339.531 120.134 339.573 119.965 339.573Z" fill="#202D37"/>
<path d="M100.347 346.532C99.7541 346.532 99.2033 346.192 98.9914 345.598C98.6948 344.835 99.0338 343.986 99.7965 343.647C101.915 342.756 103.906 341.949 105.686 341.186C108.058 340.21 110.728 339.149 113.566 338.003C114.329 337.706 115.177 338.088 115.473 338.852C115.77 339.616 115.388 340.464 114.626 340.761C111.787 341.865 109.16 342.968 106.787 343.944C105.008 344.665 103.017 345.513 100.898 346.404C100.729 346.489 100.517 346.532 100.347 346.532Z" fill="#202D37"/>
<path d="M80.2221 355.103C79.6289 355.103 79.1205 354.763 78.8662 354.212C78.5273 353.448 78.8663 352.599 79.6289 352.26C83.7811 350.436 88.4841 348.441 93.2295 346.447C93.9921 346.108 94.8395 346.49 95.1785 347.253C95.5174 348.017 95.1361 348.866 94.3735 349.205C89.6281 351.199 84.9675 353.236 80.8153 355.018C80.6034 355.06 80.3916 355.103 80.2221 355.103Z" fill="#202D37"/>
<path d="M63.7406 362.571C63.1898 362.571 62.6814 362.273 62.4272 361.764C62.0458 361.043 62.3424 360.152 63.1051 359.77C65.5625 358.54 69.7994 356.588 75.6888 354C76.4514 353.66 77.2988 354 77.6378 354.763C77.9767 355.527 77.6378 356.376 76.8751 356.715C71.0281 359.261 66.8759 361.213 64.4185 362.401C64.1643 362.528 63.9525 362.571 63.7406 362.571Z" fill="#202D37"/>
</svg>
