<svg width="760" height="742" viewBox="0 0 760 742" fill="none" xmlns="http://www.w3.org/2000/svg">
<path d="M505.415 97.9152C472.249 117.06 448.856 149.258 420.508 175.106C385.249 207.129 342.335 229.334 295.99 239.534C257.99 247.833 218.287 247.956 181.67 261.01C110.23 286.306 61.3017 361.38 60.0705 437.712C58.8393 514.043 101.87 588.043 165.118 629.891C186.658 644.15 210.239 654.989 235.038 662.028C281.55 675.236 330.874 674.653 378.936 669.606C461.959 660.878 548.994 613.293 601.327 546.211C624.655 516.229 644.371 483.556 660.06 448.879C685.979 391.859 700.7 330.31 703.411 267.637C705.615 213.947 703.411 154.428 661.2 115.295C618.99 76.1631 554.891 69.3368 505.415 97.9152Z" fill="#92E3A9"/>
<path opacity="0.7" d="M505.415 97.9152C472.249 117.06 448.856 149.258 420.508 175.106C385.249 207.129 342.335 229.334 295.99 239.534C257.99 247.833 218.287 247.956 181.67 261.01C110.23 286.306 61.3017 361.38 60.0705 437.712C58.8393 514.043 101.87 588.043 165.118 629.891C186.658 644.15 210.239 654.989 235.038 662.028C281.55 675.236 330.874 674.653 378.936 669.606C461.959 660.878 548.994 613.293 601.327 546.211C624.655 516.229 644.371 483.556 660.06 448.879C685.979 391.859 700.7 330.31 703.411 267.637C705.615 213.947 703.411 154.428 661.2 115.295C618.99 76.1631 554.891 69.3368 505.415 97.9152Z" fill="white"/>
<path d="M557.998 709.142C617.935 709.142 666.523 695.935 666.523 679.643C666.523 663.351 617.935 650.144 557.998 650.144C498.062 650.144 449.474 663.351 449.474 679.643C449.474 695.935 498.062 709.142 557.998 709.142Z" fill="#ECECEC"/>
<path d="M451.38 104.772H130.918C123.405 104.772 117.314 110.919 117.314 118.501V299.805C117.314 307.387 123.405 313.534 130.918 313.534H451.38C458.893 313.534 464.984 307.387 464.984 299.805V118.501C464.984 110.919 458.893 104.772 451.38 104.772Z" fill="white"/>
<path d="M464.984 118.501V123.932H117.314V118.501C117.314 114.853 118.745 111.353 121.294 108.766C123.843 106.179 127.303 104.716 130.918 104.695H451.44C453.229 104.702 454.998 105.064 456.648 105.761C458.297 106.459 459.794 107.478 461.052 108.761C462.31 110.044 463.305 111.564 463.98 113.236C464.654 114.907 464.996 116.697 464.984 118.501V118.501Z" fill="#92E3A9"/>
<path d="M451.38 104.772H130.918C123.405 104.772 117.314 110.919 117.314 118.501V299.805C117.314 307.387 123.405 313.534 130.918 313.534H451.38C458.893 313.534 464.984 307.387 464.984 299.805V118.501C464.984 110.919 458.893 104.772 451.38 104.772Z" stroke="#263238" stroke-width="1.52" stroke-linecap="round" stroke-linejoin="round"/>
<path d="M464.984 118.501V123.932H117.314V118.501C117.314 114.853 118.745 111.353 121.294 108.766C123.843 106.179 127.303 104.716 130.918 104.695H451.44C453.229 104.702 454.998 105.064 456.648 105.761C458.297 106.459 459.794 107.478 461.052 108.761C462.31 110.044 463.305 111.564 463.98 113.236C464.654 114.907 464.996 116.697 464.984 118.501V118.501Z" stroke="#263238" stroke-width="1.52" stroke-linecap="round" stroke-linejoin="round"/>
<path d="M156.362 114.344C156.365 115.04 156.164 115.72 155.783 116.3C155.402 116.88 154.86 117.332 154.224 117.601C153.588 117.869 152.888 117.941 152.212 117.807C151.536 117.673 150.914 117.34 150.426 116.849C149.937 116.358 149.604 115.733 149.469 115.051C149.333 114.369 149.401 113.662 149.664 113.019C149.927 112.376 150.373 111.827 150.946 111.44C151.519 111.053 152.192 110.847 152.882 110.847C153.802 110.847 154.685 111.215 155.337 111.87C155.99 112.526 156.358 113.415 156.362 114.344Z" fill="#263238"/>
<path d="M174.527 114.344C174.53 115.04 174.328 115.72 173.948 116.3C173.567 116.88 173.024 117.332 172.389 117.601C171.753 117.869 171.053 117.941 170.376 117.807C169.7 117.673 169.079 117.34 168.59 116.849C168.102 116.358 167.769 115.733 167.633 115.051C167.498 114.369 167.566 113.662 167.829 113.019C168.092 112.376 168.538 111.827 169.111 111.44C169.683 111.053 170.357 110.847 171.046 110.847C171.967 110.847 172.85 111.215 173.502 111.87C174.154 112.526 174.523 113.415 174.527 114.344V114.344Z" fill="#263238"/>
<path d="M189.209 117.857C191.131 117.857 192.69 116.284 192.69 114.344C192.69 112.404 191.131 110.832 189.209 110.832C187.287 110.832 185.728 112.404 185.728 114.344C185.728 116.284 187.287 117.857 189.209 117.857Z" fill="#263238"/>
<path d="M241.832 139.134H143.534C140.436 139.134 137.925 141.668 137.925 144.794V192.517C137.925 195.643 140.436 198.177 143.534 198.177H241.832C244.93 198.177 247.441 195.643 247.441 192.517V144.794C247.441 141.668 244.93 139.134 241.832 139.134Z" stroke="#263238" stroke-width="1.52" stroke-linecap="round" stroke-linejoin="round"/>
<path d="M144.37 190.753H239.324" stroke="#263238" stroke-width="1.52" stroke-linecap="round" stroke-linejoin="round"/>
<path d="M162.443 179.478H151.423V190.599H162.443V179.478Z" fill="#92E3A9" stroke="#263238" stroke-width="1.52" stroke-miterlimit="10"/>
<path d="M178.57 164.859H167.55V190.753H178.57V164.859Z" fill="#92E3A9" stroke="#263238" stroke-width="1.52" stroke-miterlimit="10"/>
<path d="M196.734 169.308H185.714V191.014H196.734V169.308Z" fill="#92E3A9" stroke="#263238" stroke-width="1.52" stroke-miterlimit="10"/>
<path d="M215.825 147.694H204.805V190.262H215.825V147.694Z" fill="#92E3A9" stroke="#263238" stroke-width="1.52" stroke-miterlimit="10"/>
<path d="M234.901 148.031H223.881V190.599H234.901V148.031Z" fill="#92E3A9" stroke="#263238" stroke-width="1.52" stroke-miterlimit="10"/>
<path d="M383.222 201.23C400.239 201.23 414.033 187.309 414.033 170.136C414.033 152.963 400.239 139.042 383.222 139.042C366.206 139.042 352.412 152.963 352.412 170.136C352.412 187.309 366.206 201.23 383.222 201.23Z" fill="#92E3A9" stroke="#263238" stroke-width="1.52" stroke-miterlimit="10"/>
<path d="M385.746 189.526V192.716H380.578V189.526C378.456 189.008 376.579 187.759 375.269 185.996C373.96 184.232 373.3 182.063 373.404 179.861V178.42L379.256 177.775V179.309C379.256 182.27 380.776 184.065 383.162 184.065C383.68 184.108 384.201 184.038 384.69 183.859C385.178 183.68 385.623 183.396 385.992 183.027C386.362 182.659 386.648 182.214 386.831 181.723C387.015 181.232 387.09 180.707 387.053 180.184C387.053 177.346 384.424 174.907 381.323 172.314C377.645 169.246 373.981 165.595 373.981 160.441C373.981 155.287 376.383 151.805 380.578 150.762V147.555H385.746V150.731C389.987 151.728 392.449 155.333 392.449 160.472V161.515L386.597 162.144V161.07C386.597 158.002 385.397 156.315 383.269 156.315C381.141 156.315 379.94 157.649 379.94 160.196C379.94 163.034 382.646 165.411 385.686 168.065C389.303 171.133 393.027 174.784 393.027 179.938C393.116 182.143 392.437 184.31 391.106 186.062C389.776 187.814 387.879 189.039 385.746 189.526V189.526Z" fill="#263238"/>
<path d="M135.371 228.336H144.37" stroke="#263238" stroke-width="1.52" stroke-linecap="round" stroke-linejoin="round"/>
<path d="M135.371 245.885H144.37" stroke="#263238" stroke-width="1.52" stroke-linecap="round" stroke-linejoin="round"/>
<path d="M135.371 263.449H144.37" stroke="#263238" stroke-width="1.52" stroke-linecap="round" stroke-linejoin="round"/>
<path d="M135.371 280.998H144.37" stroke="#263238" stroke-width="1.52" stroke-linecap="round" stroke-linejoin="round"/>
<path d="M164.206 294.252V287.195" stroke="#263238" stroke-width="1.52" stroke-linecap="round" stroke-linejoin="round"/>
<path d="M178.464 294.252V287.195" stroke="#263238" stroke-width="1.52" stroke-linecap="round" stroke-linejoin="round"/>
<path d="M192.721 294.252V287.195" stroke="#263238" stroke-width="1.52" stroke-linecap="round" stroke-linejoin="round"/>
<path d="M206.994 294.252V287.195" stroke="#263238" stroke-width="1.52" stroke-linecap="round" stroke-linejoin="round"/>
<path d="M221.252 294.252V287.195" stroke="#263238" stroke-width="1.52" stroke-linecap="round" stroke-linejoin="round"/>
<path d="M235.509 294.252V287.195" stroke="#263238" stroke-width="1.52" stroke-linecap="round" stroke-linejoin="round"/>
<path d="M249.767 294.252V287.195" stroke="#263238" stroke-width="1.52" stroke-linecap="round" stroke-linejoin="round"/>
<path d="M264.039 294.252V287.195" stroke="#263238" stroke-width="1.52" stroke-linecap="round" stroke-linejoin="round"/>
<path d="M278.298 294.252V287.195" stroke="#263238" stroke-width="1.52" stroke-linecap="round" stroke-linejoin="round"/>
<path d="M292.555 294.252V287.195" stroke="#263238" stroke-width="1.52" stroke-linecap="round" stroke-linejoin="round"/>
<path d="M306.812 294.252V287.195" stroke="#263238" stroke-width="1.52" stroke-linecap="round" stroke-linejoin="round"/>
<path d="M321.086 294.252V287.195" stroke="#263238" stroke-width="1.52" stroke-linecap="round" stroke-linejoin="round"/>
<path d="M335.343 294.252V287.195" stroke="#263238" stroke-width="1.52" stroke-linecap="round" stroke-linejoin="round"/>
<path d="M349.6 294.252V287.195" stroke="#263238" stroke-width="1.52" stroke-linecap="round" stroke-linejoin="round"/>
<path d="M363.858 294.252V287.195" stroke="#263238" stroke-width="1.52" stroke-linecap="round" stroke-linejoin="round"/>
<path d="M377.583 294.252V287.195" stroke="#263238" stroke-width="1.52" stroke-linecap="round" stroke-linejoin="round"/>
<path d="M391.31 294.252V287.195" stroke="#263238" stroke-width="1.52" stroke-linecap="round" stroke-linejoin="round"/>
<path d="M405.02 294.252V287.195" stroke="#263238" stroke-width="1.52" stroke-linecap="round" stroke-linejoin="round"/>
<path d="M441.317 217.598V285.8C441.317 290.478 436.605 294.252 430.799 294.252H145.92C144.185 294.314 142.46 293.971 140.878 293.25C139.296 292.529 137.901 291.449 136.8 290.095C135.849 288.865 135.316 287.359 135.28 285.8V217.598C135.28 212.996 139.992 209.146 145.798 209.146H430.799C436.605 209.146 441.317 212.919 441.317 217.598Z" stroke="#92E3A9" stroke-width="1.52" stroke-linecap="round" stroke-linejoin="round"/>
<path d="M354.616 85.5052L263.674 209.146L228.897 256.423L190.897 232.002L144.4 294.252H143.731C142.273 294.253 140.84 293.87 139.574 293.141C138.308 292.412 137.252 291.362 136.511 290.095L188.754 220.129L226.753 244.504L252.761 209.222L347.593 80.3663L354.616 85.5052Z" fill="#219653"/>
<path d="M331.543 87.0698L364.968 66.6216L355.726 101.996L349.829 85.6279L331.543 87.0698Z" fill="#219653"/>
<path d="M647.869 476.338H113.301L53.3821 530.104" stroke="#27AE60" stroke-width="2.10526" stroke-linecap="round" stroke-linejoin="round"/>
<path d="M113.636 438.693V334.151" stroke="#27AE60" stroke-width="2.10526" stroke-linecap="round" stroke-linejoin="round"/>
<path d="M113.636 470.263V450.045" stroke="#27AE60" stroke-width="2.10526" stroke-linecap="round" stroke-linejoin="round"/>
<path d="M615.69 222C615.69 222 615.69 215.68 606.919 206.845C598.149 198.009 592.525 192.947 592.525 192.947C592.525 192.947 588.132 207.474 596.279 216.325C602.264 222.56 608.757 228.276 615.69 233.413V222Z" fill="#92E3A9"/>
<path d="M602.967 261.47C602.967 261.47 602.967 255.15 594.197 246.299C585.426 237.448 579.802 232.401 579.802 232.401C579.802 232.401 575.425 246.928 583.557 255.779C589.548 262.011 596.041 267.732 602.967 272.883V261.47Z" fill="#92E3A9"/>
<path d="M615.127 232.769C615.127 232.769 615.796 226.48 625.433 218.61C635.07 210.741 641.21 206.338 641.21 206.338C641.21 206.338 644.038 221.295 635.024 229.18C628.42 234.728 621.368 239.711 613.942 244.075L615.127 232.769Z" fill="#92E3A9"/>
<path d="M599.76 279.372C599.76 279.372 601.082 273.236 611.479 266.394C621.876 259.553 628.427 255.841 628.427 255.841C628.427 255.841 629.689 270.981 619.945 277.915C612.804 282.732 605.274 286.935 597.434 290.478L599.76 279.372Z" fill="#92E3A9"/>
<path d="M602.663 330.163C602.663 330.163 602.663 323.843 611.418 315.007C620.173 306.171 625.812 301.109 625.812 301.109C625.812 301.109 630.205 315.651 622.058 324.487C616.083 330.731 609.595 336.453 602.663 341.591V330.163Z" fill="#92E3A9"/>
<path d="M602.511 342.573C602.511 342.573 603.393 336.314 595.96 326.312C588.527 316.311 583.678 310.482 583.678 310.482C583.678 310.482 577.325 324.288 584.119 334.167C589.17 341.183 594.793 347.761 600.93 353.832L602.511 342.573Z" fill="#92E3A9"/>
<path d="M593.863 379.312C593.863 379.312 593.863 373.007 602.633 364.156C611.404 355.305 617.028 350.35 617.028 350.35C617.028 350.35 621.421 364.877 613.273 373.713C607.29 379.953 600.797 385.675 593.863 390.817V379.312Z" fill="#92E3A9"/>
<path d="M599.714 412.646C599.714 412.646 598.194 406.51 604.411 395.772C610.628 385.034 614.853 378.668 614.853 378.668C614.853 378.668 622.727 391.615 617.088 402.245C612.857 409.801 608.007 416.984 602.587 423.721L599.714 412.646Z" fill="#92E3A9"/>
<path d="M616.48 220.436C616.037 227.01 615.236 233.555 614.078 240.04C610.613 258.111 601.918 269.769 598.483 286.06C595.048 302.351 604.974 323.413 602.314 344.352C599.654 365.291 591.552 376.965 593.832 390.955C596.112 404.945 608.272 442.804 608.272 442.804" stroke="#263238" stroke-width="1.78978" stroke-linecap="round" stroke-linejoin="round"/>
<path d="M615.052 236.972L624.491 229.64" stroke="#263238" stroke-width="1.78978" stroke-linecap="round" stroke-linejoin="round"/>
<path d="M615.477 228.551L611.54 221.448" stroke="#263238" stroke-width="1.78978" stroke-linecap="round" stroke-linejoin="round"/>
<path d="M599.015 285.324C599.015 285.324 606.919 279.326 615.051 273.343" stroke="#263238" stroke-width="1.78978" stroke-linecap="round" stroke-linejoin="round"/>
<path d="M602.967 272.807C602.967 272.807 596.37 259.768 588.907 251.116" stroke="#263238" stroke-width="1.78978" stroke-linecap="round" stroke-linejoin="round"/>
<path d="M602.968 339.152C607.496 330.758 613.205 323.07 619.916 316.326" stroke="#263238" stroke-width="1.78978" stroke-linecap="round" stroke-linejoin="round"/>
<path d="M601.432 348.019C599.008 342.311 596.12 336.816 592.798 331.589C588.238 324.717 587.509 323.827 587.509 323.827" stroke="#263238" stroke-width="1.78978" stroke-linecap="round" stroke-linejoin="round"/>
<path d="M593.863 390.94C595.87 385.917 598.253 381.055 600.992 376.398C603.726 372.061 606.807 367.956 610.203 364.126" stroke="#263238" stroke-width="1.78978" stroke-linecap="round" stroke-linejoin="round"/>
<path d="M602.571 423.645C602.113 418.852 602.932 414.022 604.943 409.655C608.241 403.227 611.965 394.79 613.516 391.477" stroke="#263238" stroke-width="1.78978" stroke-linecap="round" stroke-linejoin="round"/>
<path d="M558.295 306.401C558.295 306.401 557.611 302.459 562.155 295.939C566.7 289.42 569.755 285.631 569.755 285.631C569.755 285.631 574.057 294.252 569.907 300.695C566.825 305.254 563.367 309.544 559.572 313.519L558.295 306.401Z" fill="#92E3A9"/>
<path d="M570.516 329.81C570.516 329.81 569.832 325.837 574.376 319.333C578.921 312.829 581.976 309.04 581.976 309.04C581.976 309.04 586.278 317.676 582.128 324.104C579.049 328.666 575.592 332.956 571.792 336.928L570.516 329.81Z" fill="#92E3A9"/>
<path d="M559.799 313.089C559.799 313.089 558.735 309.224 551.819 305.419C544.903 301.615 540.602 299.437 540.602 299.437C540.602 299.437 540.435 309.055 546.955 313.089C551.691 315.847 556.649 318.197 561.775 320.115L559.799 313.089Z" fill="#92E3A9"/>
<path d="M574.452 340.625C574.452 340.625 572.932 336.897 565.697 333.783C558.462 330.669 553.917 329.028 553.917 329.028C553.917 329.028 554.753 338.646 561.639 341.929C566.638 344.166 571.814 345.977 577.112 347.344L574.452 340.625Z" fill="#92E3A9"/>
<path d="M578.1 372.762C578.1 372.762 577.416 368.804 570.972 364.218C564.527 359.631 560.438 357.069 560.438 357.069C560.438 357.069 559.252 366.687 565.317 371.32C569.737 374.56 574.42 377.419 579.316 379.864L578.1 372.762Z" fill="#92E3A9"/>
<path d="M579.514 380.57C579.514 380.57 578.282 376.75 581.87 369.663C585.457 362.576 587.95 358.388 587.95 358.388C587.95 358.388 593.422 366.304 590.23 373.284C587.796 378.237 584.959 382.978 581.748 387.458L579.514 380.57Z" fill="#92E3A9"/>
<path d="M590.518 412.523C590.518 412.523 590.974 408.535 597.145 403.58C603.317 398.625 607.253 395.91 607.253 395.91C607.253 395.91 608.986 405.421 603.195 410.422C598.966 413.912 594.456 417.042 589.713 419.779L590.518 412.523Z" fill="#92E3A9"/>
<path d="M588.892 402.675C588.892 402.675 588.208 398.702 581.764 394.115C575.319 389.529 571.245 386.982 571.245 386.982C571.245 386.982 570.06 396.6 576.109 401.233C580.536 404.471 585.224 407.33 590.124 409.777L588.892 402.675Z" fill="#92E3A9"/>
<path d="M588.801 424.212C588.801 424.212 589.15 420.193 584.058 414.119C578.966 408.044 575.668 404.5 575.668 404.5C575.668 404.5 572.111 413.474 576.808 419.534C580.277 423.807 584.09 427.783 588.208 431.422L588.801 424.212Z" fill="#92E3A9"/>
<path d="M557.611 305.481C558.6 309.559 559.813 313.58 561.244 317.523C565.348 328.46 572.036 334.826 575.957 344.674C579.879 354.523 575.957 368.804 579.833 381.644C583.709 394.483 590.093 400.88 590.139 409.946C590.185 419.012 586.719 444.062 586.719 444.062" stroke="#263238" stroke-width="1.78978" stroke-linecap="round" stroke-linejoin="round"/>
<path d="M560.301 315.713L553.598 312.169" stroke="#263238" stroke-width="1.78978" stroke-linecap="round" stroke-linejoin="round"/>
<path d="M559.115 310.482L560.832 305.603" stroke="#263238" stroke-width="1.78978" stroke-linecap="round" stroke-linejoin="round"/>
<path d="M575.562 344.26C575.562 344.26 569.953 341.376 564.223 338.508" stroke="#263238" stroke-width="1.78978" stroke-linecap="round" stroke-linejoin="round"/>
<path d="M571.732 336.928C573.38 331.677 575.555 326.609 578.222 321.802" stroke="#263238" stroke-width="1.78978" stroke-linecap="round" stroke-linejoin="round"/>
<path d="M578.875 378.468C575.135 373.703 570.732 369.507 565.803 366.012" stroke="#263238" stroke-width="1.78978" stroke-linecap="round" stroke-linejoin="round"/>
<path d="M580.791 383.868C581.679 380.035 582.884 376.284 584.393 372.655C586.506 367.823 586.871 367.194 586.871 367.194" stroke="#263238" stroke-width="1.78978" stroke-linecap="round" stroke-linejoin="round"/>
<path d="M589.85 416.788C592.025 414.061 594.436 411.536 597.055 409.241C598.722 407.994 600.288 406.614 601.736 405.114" stroke="#263238" stroke-width="1.78978" stroke-linecap="round" stroke-linejoin="round"/>
<path d="M590.139 409.946C588.322 407.02 586.29 404.235 584.059 401.617C581.876 399.211 579.502 396.989 576.96 394.974" stroke="#263238" stroke-width="1.78978" stroke-linecap="round" stroke-linejoin="round"/>
<path d="M588.238 431.422C587.997 428.352 586.947 425.402 585.198 422.878C582.432 419.196 579.118 414.318 577.872 412.401" stroke="#263238" stroke-width="1.78978" stroke-linecap="round" stroke-linejoin="round"/>
<path d="M617.392 487.26H577.477C576.684 487.26 575.922 486.947 575.354 486.388C574.786 485.83 574.457 485.069 574.437 484.268L568.707 439.69H626.041L620.311 484.268C620.292 485.048 619.98 485.791 619.438 486.347C618.896 486.902 618.164 487.229 617.392 487.26Z" fill="#263238"/>
<path d="M625.585 447.222H568.767C567.584 447.226 566.448 446.757 565.608 445.918C564.767 445.078 564.291 443.936 564.283 442.743V442.743C564.302 441.552 564.779 440.414 565.612 439.57C566.446 438.726 567.571 438.241 568.752 438.218H625.585C626.173 438.216 626.755 438.331 627.299 438.557C627.843 438.782 628.338 439.114 628.754 439.533C629.171 439.952 629.501 440.45 629.727 440.998C629.952 441.546 630.069 442.134 630.069 442.728V442.728C630.067 443.32 629.949 443.906 629.723 444.452C629.496 444.999 629.165 445.495 628.749 445.912C628.333 446.33 627.839 446.66 627.296 446.885C626.753 447.11 626.171 447.224 625.585 447.222V447.222Z" fill="#263238"/>
<path d="M497.496 268.926C497.494 281.515 493.265 293.732 485.5 303.586C477.736 313.439 466.892 320.347 454.738 323.183H454.571C453.127 323.505 451.683 323.797 450.193 324.011C447.58 324.387 444.944 324.577 442.305 324.579C427.878 324.527 414.045 318.776 403.768 308.557C393.491 298.339 387.587 284.465 387.32 269.908C387.054 255.35 392.447 241.267 402.343 230.672C412.239 220.078 425.853 213.815 440.268 213.226C440.769 213.226 441.301 213.226 441.788 213.226C441.95 213.211 442.112 213.211 442.274 213.226C442.461 213.211 442.65 213.211 442.837 213.226C450.283 213.274 457.64 214.867 464.451 217.905C474.276 222.248 482.634 229.387 488.502 238.449C494.371 247.51 497.496 258.1 497.496 268.926Z" fill="#92E3A9"/>
<path opacity="0.4" d="M464.482 217.92C400.748 214.576 400.444 285.984 400.444 285.984C400.444 285.984 390.716 262.682 406.6 236.896C415.477 222.461 430.92 216.095 442.867 213.272C450.311 213.311 457.668 214.893 464.482 217.92V217.92Z" fill="white"/>
<path d="M497.496 268.926C497.495 281.546 493.248 293.792 485.449 303.658C477.651 313.524 466.764 320.424 454.571 323.229C450.548 324.164 446.433 324.632 442.305 324.625C427.667 324.898 413.522 319.291 402.98 309.038C392.439 298.785 386.365 284.726 386.095 269.953C385.825 255.181 391.381 240.905 401.54 230.267C411.7 219.628 425.63 213.499 440.268 213.226C440.937 213.226 441.621 213.226 442.305 213.226C456.941 213.23 470.977 219.1 481.326 229.545C491.676 239.989 497.492 254.154 497.496 268.926V268.926Z" stroke="#263238" stroke-width="1.52" stroke-linecap="round" stroke-linejoin="round"/>
<path d="M497.496 268.926C497.496 281.546 493.248 293.792 485.45 303.658C477.651 313.524 466.764 320.424 454.571 323.229C453.903 323.229 453.219 323.229 452.535 323.229C438.987 323.193 425.926 318.131 415.837 309.006C405.748 299.882 399.335 287.332 397.82 273.745C396.305 260.159 399.793 246.484 407.621 235.325C415.448 224.165 427.068 216.3 440.268 213.226C440.937 213.226 441.621 213.226 442.305 213.226C456.941 213.23 470.977 219.1 481.327 229.545C491.676 239.989 497.492 254.154 497.496 268.926V268.926Z" stroke="#263238" stroke-width="1.52" stroke-linecap="round" stroke-linejoin="round"/>
<path d="M461.32 303.732L462.749 309.623L453.203 311.97L451.774 306.094C443.232 306.094 436.377 300.495 434.188 291.506L433.534 288.837L444.068 284.987L444.737 287.763C446.059 293.224 449.631 295.847 454.085 294.743C455.062 294.589 455.995 294.223 456.819 293.671C457.643 293.118 458.338 292.392 458.857 291.541C459.376 290.691 459.706 289.738 459.824 288.746C459.942 287.755 459.845 286.75 459.541 285.8C458.265 280.553 452.306 277.27 445.405 273.88C437.243 269.892 428.822 264.83 426.512 255.304C424.262 246.008 427.089 238.261 434.37 234.426L432.941 228.535L442.472 226.188L443.901 232.064C452.185 231.941 458.356 237.448 460.621 246.959L461.092 248.892L450.573 252.742L450.041 250.61C448.643 244.826 445.694 242.387 441.773 243.354C437.851 244.32 436.225 247.342 437.365 252.036C438.641 257.282 444.676 260.443 451.501 263.971C459.572 268.097 468.084 273.021 470.394 282.532C472.72 291.69 469.011 299.851 461.32 303.732Z" stroke="#263238" stroke-width="1.52" stroke-miterlimit="10"/>
<path opacity="0.3" d="M461.32 303.732L462.749 309.623L453.203 311.97L451.774 306.094C443.232 306.094 436.377 300.495 434.188 291.506L433.534 288.837L444.068 284.987L444.737 287.763C446.059 293.224 449.631 295.847 454.085 294.743C455.062 294.589 455.995 294.223 456.819 293.671C457.643 293.118 458.338 292.392 458.857 291.541C459.376 290.691 459.706 289.738 459.824 288.746C459.942 287.755 459.845 286.75 459.541 285.8C458.265 280.553 452.306 277.27 445.405 273.88C437.243 269.892 428.822 264.83 426.512 255.304C424.262 246.008 427.089 238.261 434.37 234.426L432.941 228.535L442.472 226.188L443.901 232.064C452.185 231.941 458.356 237.448 460.621 246.959L461.092 248.892L450.573 252.742L450.041 250.61C448.643 244.826 445.694 242.387 441.773 243.354C437.851 244.32 436.225 247.342 437.365 252.036C438.641 257.282 444.676 260.443 451.501 263.971C459.572 268.097 468.084 273.021 470.394 282.532C472.72 291.69 469.011 299.851 461.32 303.732Z" fill="black"/>
<path d="M414.094 316.817L425.752 316.28" stroke="#263238" stroke-width="1.52" stroke-linecap="round" stroke-linejoin="round"/>
<path d="M408.485 312.905L418.654 312.031" stroke="#263238" stroke-width="1.52" stroke-linecap="round" stroke-linejoin="round"/>
<path d="M403.925 308.779L414.094 307.904" stroke="#263238" stroke-width="1.52" stroke-linecap="round" stroke-linejoin="round"/>
<path d="M402.526 230.299H411.236" stroke="#263238" stroke-width="1.52" stroke-linecap="round" stroke-linejoin="round"/>
<path d="M406.828 226.25L415.507 225.851" stroke="#263238" stroke-width="1.52" stroke-linecap="round" stroke-linejoin="round"/>
<path d="M412.269 222.185L421.42 221.31" stroke="#263238" stroke-width="1.52" stroke-linecap="round" stroke-linejoin="round"/>
<path opacity="0.3" d="M454.738 323.183H454.571C450.548 324.118 446.433 324.586 442.305 324.579C427.878 324.527 414.045 318.776 403.768 308.557C393.491 298.339 387.587 284.465 387.32 269.908C387.054 255.351 392.447 241.267 402.343 230.672C412.239 220.078 425.853 213.815 440.268 213.226C440.769 213.226 441.301 213.226 441.788 213.226C428.336 217.506 405.764 228.443 399.729 251.254C391.202 283.667 410.4 320.468 454.738 323.183Z" fill="black"/>
<path opacity="0.1" d="M497.496 268.926C497.494 281.515 493.266 293.732 485.501 303.586C477.736 313.439 466.893 320.347 454.739 323.183H454.571C453.127 323.505 451.683 323.797 450.194 324.011L464.482 217.874C474.306 222.224 482.66 229.37 488.524 238.437C494.387 247.504 497.505 258.099 497.496 268.926Z" fill="black"/>
<path d="M528.808 181.242C524.438 187.472 518.104 192.023 510.84 194.151C503.577 196.28 495.813 195.86 488.817 192.962L488.619 192.87C487.581 192.409 486.567 191.897 485.579 191.336C484.463 190.731 483.387 190.054 482.357 189.311C475.623 184.121 471.093 176.546 469.681 168.115C468.268 159.685 470.08 151.027 474.748 143.892C479.417 136.758 486.595 131.677 494.833 129.678C503.07 127.678 511.752 128.909 519.125 133.121L519.87 133.596C520.22 133.795 520.554 134.041 520.904 134.286C521.253 134.532 521.922 135.038 522.424 135.437C529.068 140.815 533.428 148.55 534.615 157.062C535.801 165.574 533.724 174.223 528.808 181.242Z" fill="#92E3A9"/>
<path opacity="0.4" d="M478.435 181.702C478.435 181.702 472.978 165.488 480.229 153.553C489.349 138.597 503.317 131.771 522.333 135.452C522.333 135.452 512.027 128.426 494.775 133.412C477.523 138.397 468.266 162.359 478.435 181.702Z" fill="white"/>
<path d="M528.808 181.257C524.434 187.482 518.098 192.026 510.835 194.149C503.572 196.272 495.81 195.848 488.817 192.947C486.509 191.995 484.316 190.78 482.281 189.326C475.506 184.081 470.975 176.418 469.619 167.91C468.263 159.401 470.183 150.691 474.986 143.566C479.79 136.441 487.112 131.44 495.452 129.589C503.792 127.738 512.518 129.177 519.84 133.611C520.174 133.811 520.524 134.041 520.858 134.286C528.073 139.46 532.961 147.31 534.451 156.114C535.941 164.919 533.912 173.96 528.808 181.257Z" stroke="#263238" stroke-width="1.52" stroke-linecap="round" stroke-linejoin="round"/>
<path d="M528.807 181.257C524.433 187.482 518.097 192.026 510.834 194.149C503.571 196.272 495.81 195.848 488.816 192.947L487.798 192.272C481.194 187.441 476.568 180.341 474.789 172.308C473.01 164.275 474.201 155.863 478.138 148.655C482.076 141.446 488.488 135.939 496.168 133.168C503.848 130.398 512.267 130.555 519.839 133.611C520.174 133.811 520.523 134.041 520.858 134.286C528.072 139.46 532.96 147.31 534.45 156.114C535.94 164.919 533.911 173.96 528.807 181.257Z" stroke="#263238" stroke-width="1.52" stroke-linecap="round" stroke-linejoin="round"/>
<path d="M498.88 185.737L497.557 189.142L492.024 186.949L493.347 183.528C491.294 182.069 489.807 179.936 489.142 177.492C488.476 175.049 488.673 172.449 489.699 170.136L490.307 168.602L496.843 170.397L496.22 172.023C494.988 175.183 495.824 177.729 498.408 178.757C498.945 179.026 499.533 179.175 500.131 179.192C500.73 179.21 501.326 179.096 501.877 178.858C502.427 178.62 502.92 178.264 503.322 177.815C503.723 177.366 504.022 176.834 504.2 176.257C505.385 173.189 503.576 169.492 501.342 165.396C498.697 160.548 496.296 155.087 498.439 149.565C500.582 144.043 504.625 141.343 509.535 142.018L510.872 138.612L516.39 140.806L515.068 144.196C519.202 147.049 520.342 151.866 518.199 157.465L517.758 158.57L511.222 156.775L511.708 155.532C513.016 152.188 512.408 149.933 510.188 149.028C507.969 148.123 506.069 149.028 505.005 151.774C503.82 154.842 505.72 158.493 507.863 162.635C510.432 167.528 512.924 172.958 510.781 178.466C509.968 180.901 508.327 182.968 506.149 184.299C503.97 185.63 501.395 186.139 498.88 185.737V185.737Z" stroke="#263238" stroke-width="1.52" stroke-miterlimit="10"/>
<path opacity="0.3" d="M498.88 185.737L497.557 189.142L492.024 186.949L493.347 183.528C491.294 182.069 489.807 179.936 489.142 177.492C488.476 175.049 488.673 172.449 489.699 170.136L490.307 168.602L496.843 170.397L496.22 172.023C494.988 175.183 495.824 177.729 498.408 178.757C498.945 179.026 499.533 179.175 500.131 179.192C500.73 179.21 501.326 179.096 501.877 178.858C502.427 178.62 502.92 178.264 503.322 177.815C503.723 177.366 504.022 176.834 504.2 176.257C505.385 173.189 503.576 169.492 501.342 165.396C498.697 160.548 496.296 155.087 498.439 149.565C500.582 144.043 504.625 141.343 509.535 142.018L510.872 138.612L516.39 140.806L515.068 144.196C519.202 147.049 520.342 151.866 518.199 157.465L517.758 158.57L511.222 156.775L511.708 155.532C513.016 152.188 512.408 149.933 510.188 149.028C507.969 148.123 506.069 149.028 505.005 151.774C503.82 154.842 505.72 158.493 507.863 162.635C510.432 167.528 512.924 172.958 510.781 178.466C509.968 180.901 508.327 182.968 506.149 184.299C503.97 185.63 501.395 186.139 498.88 185.737V185.737Z" fill="black"/>
<path opacity="0.3" d="M519.049 133.136C509.929 131.494 498.377 130.589 492.145 134.67C480.7 142.079 473.571 151.421 473.677 166.562C473.784 181.702 487.798 192.318 487.798 192.318L488.619 192.916C486.383 191.974 484.258 190.785 482.281 189.372C475.547 184.183 471.017 176.607 469.605 168.177C468.192 159.746 470.004 151.089 474.672 143.954C479.341 136.819 486.519 131.738 494.757 129.739C502.994 127.739 511.676 128.97 519.049 133.182V133.136Z" fill="black"/>
<path opacity="0.1" d="M528.808 181.242C524.437 187.472 518.104 192.023 510.84 194.151C503.577 196.28 495.813 195.86 488.816 192.962L488.619 192.87C487.581 192.409 486.567 191.897 485.579 191.336L522.332 135.452C528.987 140.817 533.362 148.542 534.565 157.052C535.769 165.561 533.709 174.213 528.808 181.242Z" fill="black"/>
<path d="M511.602 613.232C497.454 630.407 480.587 645.102 461.685 656.721C455.795 660.277 449.705 663.483 443.445 666.324C400.262 685.913 351.044 687.186 305.019 675.926C208.24 652.257 156.895 566.046 150.374 470.34C148.626 444.476 144.704 416.542 155.086 391.937C165.468 367.332 186.459 352.053 210.201 341.438C227.438 333.691 246.058 328.491 262.976 324.242C293.592 316.609 325.886 319.971 354.312 333.752C374.209 343.279 388.376 359.83 405.111 373.774C406.884 375.247 408.668 376.715 410.461 378.177C427.366 391.909 445.137 404.52 463.661 415.929C491.796 433.248 520.6 449.585 538.582 478.669C567.264 525.027 543.066 575.495 511.602 613.232Z" fill="#92E3A9"/>
<path opacity="0.4" d="M511.602 613.232C497.454 630.407 480.587 645.102 461.685 656.721C455.795 660.277 449.705 663.483 443.445 666.324C400.262 685.913 351.044 687.186 305.019 675.926C208.24 652.257 156.895 566.046 150.374 470.34C148.626 444.476 144.704 416.542 155.086 391.937C165.468 367.332 186.459 352.053 210.201 341.438C227.438 333.691 246.058 328.491 262.976 324.242C293.592 316.609 325.886 319.971 354.312 333.752C374.209 343.279 388.376 359.83 405.111 373.774C406.884 375.247 408.668 376.715 410.461 378.177C427.366 391.909 445.137 404.52 463.661 415.929C491.796 433.248 520.6 449.585 538.582 478.669C567.264 525.027 543.066 575.495 511.602 613.232Z" fill="white"/>
<path d="M410.401 378.177C408.607 376.725 406.824 375.252 405.05 373.759C388.33 359.784 374.133 343.279 354.252 333.752C325.823 319.979 293.532 316.616 262.915 324.242C222.681 334.32 172.779 349.844 154.995 391.952C144.613 416.496 148.535 444.476 150.298 470.34C156.895 566.046 208.241 652.257 305.019 675.926C357.672 688.812 414.459 685.284 461.685 656.721C480.587 645.102 497.454 630.407 511.602 613.232C543.066 575.495 567.265 525.027 538.613 478.669C520.646 449.523 491.842 433.248 463.692 415.929C445.137 404.523 427.335 391.913 410.401 378.177V378.177Z" stroke="#263238" stroke-width="1.52" stroke-miterlimit="10"/>
<path d="M263.797 548.835C255.74 551.295 247.92 554.489 240.434 558.376" stroke="#263238" stroke-width="1.52" stroke-linecap="round" stroke-linejoin="round"/>
<path d="M313.121 539.354C301.351 540.382 289.668 542.253 278.161 544.954" stroke="#263238" stroke-width="1.52" stroke-linecap="round" stroke-linejoin="round"/>
<path d="M302.861 536.9C302.861 536.9 257.443 510.239 202.632 531.608" stroke="#263238" stroke-width="1.52" stroke-linecap="round" stroke-linejoin="round"/>
<path opacity="0.1" d="M511.603 613.232C497.454 630.407 480.588 645.102 461.686 656.721C455.796 660.277 449.706 663.483 443.446 666.324C438.504 664.796 433.648 662.999 428.899 660.939C400.536 648.667 376.733 627.912 353.477 607.449C339.447 595.177 325.19 582.598 308.394 574.514C285.681 563.675 259.841 561.527 235.677 568.47C248.175 554.234 265.166 544.799 283.77 541.763C271.762 530.733 255.057 526.101 238.823 525.809C222.59 525.518 213.652 527.527 197.783 531.117C203.088 521.269 217.163 512.356 228.275 512.617C217.712 512.475 207.166 511.723 196.689 510.362C182.355 508.03 175.941 491.003 173.798 476.522C167.87 436.638 173.874 394.161 195.443 360.26C199.713 353.498 204.653 347.191 210.187 341.438C227.423 333.691 246.043 328.491 262.961 324.242C293.577 316.609 325.871 319.971 354.298 333.752C374.195 343.279 388.361 359.83 405.096 373.774C406.87 375.247 408.653 376.715 410.447 378.177C427.352 391.909 445.123 404.52 463.647 415.929C491.782 433.248 520.586 449.585 538.567 478.669C567.265 525.027 543.067 575.495 511.603 613.232Z" fill="black"/>
<path d="M527.441 612.066C535.963 619.216 544.879 625.874 554.147 632.008C572.22 633.235 564.118 655.279 564.118 655.279L548.645 665.327C548.645 665.327 522.151 644.081 507.681 637.193C493.21 630.305 527.441 612.066 527.441 612.066Z" fill="white"/>
<path opacity="0.3" d="M399.016 379.972C399.016 379.972 396.538 355.228 392.586 348.279L332.577 335.946V331.252C332.577 331.252 333.96 323.091 320.584 317.983C307.208 312.875 279.331 319.517 272.141 325.009C264.952 330.5 267.581 339.95 267.581 339.95C267.581 339.95 243.413 352.268 232.561 356.962C223.677 361.099 215.016 365.707 206.614 370.768C206.614 370.768 201.689 427.649 202.662 440.856C203.635 454.064 201.872 466.489 202.997 473.807C204.121 481.124 205.003 485.281 212.603 491.509C220.203 497.737 227.119 506.849 247.046 497.814L244.265 495.589L375.441 450.996L399.016 379.972Z" fill="black"/>
<path d="M399.016 379.972C399.016 379.972 396.538 355.228 392.586 348.279L332.577 335.946V331.252C332.577 331.252 333.96 323.091 320.584 317.983C307.208 312.875 279.331 319.517 272.141 325.009C264.952 330.5 267.581 339.95 267.581 339.95C267.581 339.95 243.413 352.268 232.561 356.962C223.677 361.099 215.016 365.707 206.614 370.768C206.614 370.768 201.689 427.649 202.662 440.856C203.635 454.064 201.872 466.489 202.997 473.807C204.121 481.124 205.003 485.281 212.603 491.509C220.203 497.737 227.119 506.849 247.046 497.814L244.265 495.589L375.441 450.996L399.016 379.972Z" fill="#92E3A9"/>
<path opacity="0.05" d="M399.016 379.972C399.016 379.972 396.538 355.228 392.586 348.279L332.577 335.946V331.252C332.577 331.252 333.96 323.091 320.584 317.983C307.208 312.875 279.331 319.517 272.141 325.009C264.952 330.5 267.581 339.95 267.581 339.95C267.581 339.95 243.413 352.268 232.561 356.962C223.677 361.099 215.016 365.707 206.614 370.768C206.614 370.768 201.689 427.649 202.662 440.856C203.635 454.064 201.872 466.489 202.997 473.807C204.121 481.124 205.003 485.281 212.603 491.509C220.203 497.737 227.119 506.849 247.046 497.814L244.265 495.589L375.441 450.996L399.016 379.972Z" fill="black"/>
<path opacity="0.1" d="M393.377 351.286H368.267C365.905 351.29 363.622 352.138 361.822 353.68C360.021 355.221 358.82 357.357 358.432 359.708L346.059 434.874C346.059 434.874 329.02 436.3 316.951 445.182C304.883 454.064 275.197 390.694 228.29 390.664C228.29 390.664 241.787 421.804 244.782 446.655C244.782 446.655 215.461 443.433 210.597 455.015C205.733 466.597 212.801 488.303 225.204 479.897C237.607 471.49 249.281 457.469 257.565 466.336C265.849 475.203 302.861 479.973 302.861 479.973L359.815 450.996L381.901 440.519L393.377 351.286Z" fill="black"/>
<path opacity="0.4" d="M313.653 314.025C313.653 314.025 327.91 318.014 330.221 322.846C332.531 327.678 332.288 339.904 332.288 339.904C328.828 348.075 323.586 355.353 316.951 361.196L306.311 339.904L307.269 364.049C307.269 364.049 287.083 360.659 278.51 354.155L269.953 347.635C269.953 347.635 266.259 335.363 266.791 331.206C267.323 327.049 282.721 318.612 282.721 318.612L313.653 314.025Z" fill="white"/>
<path d="M551.137 686.342C550.742 685.468 556.989 674.331 552.095 662.995C547.2 651.659 539.403 656.031 539.403 656.031C539.403 656.031 517.196 641.764 507.863 637.254C501.139 633.846 494.662 629.96 488.483 625.627L478.618 639.034L487.738 667.505L551.137 686.342Z" fill="#92E3A9"/>
<path d="M538.598 655.34L567.113 672.92C567.113 672.92 587.162 659.942 596.723 650.984C606.284 642.025 627.761 622.942 627.761 622.942L641.441 604.365C641.441 604.365 631.956 592.523 616.148 602.034C595.72 614.306 570.807 632.131 554.193 631.962C554.193 631.962 557.461 652.564 538.704 655.34" fill="#92E3A9"/>
<path d="M308.82 239.657C308.82 239.657 321.755 259.415 324.111 265.812C326.467 272.208 328.367 281.673 327.896 286.229C327.424 290.785 322.682 315.191 320.296 315.897L318 318.52L319.52 328.859C319.52 328.859 309.397 346.515 279.636 333.568C279.636 333.568 278.48 312.951 274.863 306.478C271.245 300.004 265.834 307.705 260.408 289.006C254.981 270.306 272.264 250.656 272.264 250.656L308.82 239.657Z" fill="white"/>
<path opacity="0.5" d="M629.022 598.597C629.022 598.597 614.354 601.175 609.597 609.934C604.839 618.693 595.704 634.969 592.588 642.838C589.472 650.707 563.708 669.714 563.708 669.714L567.128 672.92C567.128 672.92 588.104 659.835 600.766 647.394C613.427 634.953 641.35 603.66 641.35 603.66C641.35 603.66 639.343 601.65 629.022 598.597Z" fill="white"/>
<path opacity="0.5" d="M482.251 634.11L478.618 639.034L489.775 662.381L551.137 684.64L553.98 675.574C553.98 675.574 554.922 666.37 533.384 659.375C511.845 652.38 498.712 647.762 492.587 642.961C486.461 638.159 482.251 634.11 482.251 634.11Z" fill="white"/>
<path d="M279.681 460.706C279.681 460.706 260.894 457.853 252.123 473.362C243.353 488.87 244.25 495.589 244.25 495.589C244.25 495.589 256.668 506.972 273.738 506.327C290.807 505.683 315.659 485.956 323.761 479.528C331.863 473.101 352.291 454.708 366.23 458.513L367.75 445.213C367.75 445.213 366.382 439.246 354.465 440.856C342.548 442.467 337.867 449.324 334.021 449.324C330.175 449.324 326.543 445.596 318.821 458.911C318.806 458.911 291.704 463.759 279.681 460.706Z" fill="white"/>
<path d="M304.092 268.066C304.492 270.552 305.061 273.007 305.794 275.414C306.069 276.589 306.587 277.692 307.314 278.651C308.743 280.185 311.054 280.584 313.166 280.906C313.515 280.931 313.846 281.071 314.109 281.305C314.279 281.58 314.359 281.902 314.337 282.225C314.324 284.641 313.605 287 312.27 289.006" stroke="#263238" stroke-width="1.52" stroke-linecap="round" stroke-linejoin="round"/>
<path opacity="0.1" d="M494.852 618.202L482.251 634.048C482.251 634.048 496.083 646.949 510.401 651.735C524.72 656.521 549.784 665.541 553.98 672.49L552.368 664.222C552.368 664.222 513.168 639.954 504.169 634.156C501.509 632.395 499.285 630.04 497.669 627.274C496.054 624.508 495.09 621.404 494.852 618.202V618.202Z" fill="black"/>
<path opacity="0.1" d="M538.598 655.34L563.693 669.714C563.693 669.714 576.081 661.154 582.161 654.849C588.241 648.545 595.735 641.549 600.401 627.421C606.77 607.894 625.01 598.597 625.01 598.597C625.01 598.597 599.641 610.655 586.432 620.073C573.224 629.492 560.349 633.481 552.871 632.836C552.795 632.882 558.799 652.057 538.598 655.34Z" fill="black"/>
<path d="M295.246 292.488C295.246 292.488 305.111 300.296 315.355 297.366C315.355 297.366 305.688 316.694 295.246 292.488Z" fill="white" stroke="#263238" stroke-width="1.52" stroke-linecap="round" stroke-linejoin="round"/>
<path d="M294.881 275.614C295.17 277.761 294.516 279.618 293.452 279.771C292.388 279.924 291.278 278.237 290.99 276.135C290.701 274.034 291.339 272.132 292.418 271.978C293.498 271.825 294.653 273.466 294.881 275.614Z" fill="#263238"/>
<path d="M316.358 271.702C316.632 273.865 315.994 275.721 314.93 275.859C313.866 275.997 312.741 274.325 312.467 272.239C312.194 270.153 312.817 268.22 313.896 268.082C314.975 267.944 316.07 269.554 316.358 271.702Z" fill="#263238"/>
<path d="M293.361 266.502C293.361 266.502 287.615 263.511 283.526 269.923" stroke="#263238" stroke-width="1.52" stroke-linecap="round" stroke-linejoin="round"/>
<path d="M308.089 262.513C308.089 262.513 314.169 257.252 317.68 262.513" stroke="#263238" stroke-width="1.52" stroke-linecap="round" stroke-linejoin="round"/>
<path d="M273.844 286.244C273.844 286.244 270.15 280.737 266.244 280.906C262.337 281.075 260.787 286.597 262.185 291.936C263.584 297.274 269.405 304.729 273.813 304.023C276.3 303.7 278.568 302.426 280.152 300.465" stroke="#263238" stroke-width="1.52" stroke-linecap="round" stroke-linejoin="round"/>
<path d="M309.26 244.105C313.41 247.588 317.802 251.377 319.9 256.5C321.754 260.857 322.165 265.704 323.867 270.107C325.676 274.816 327.652 279.74 327.804 284.879C327.724 289.634 327.107 294.363 325.965 298.977C325.333 302.977 324.393 306.921 323.153 310.773C321.101 316.28 317.316 319.67 312.239 322.278C308.546 324.18 302.39 326.88 298.392 324.334C296.066 322.8 292.57 318.412 289.667 314.378" stroke="#263238" stroke-width="1.52" stroke-linecap="round" stroke-linejoin="round"/>
<path d="M273.844 304.023C273.844 304.023 280.38 320.192 278.799 331.559" stroke="#263238" stroke-width="1.52" stroke-linecap="round" stroke-linejoin="round"/>
<path d="M272.172 283.529C273.042 282.88 273.732 282.015 274.174 281.018C274.616 280.021 274.795 278.926 274.695 277.838C274.452 275.353 272.75 273.052 273.084 270.567C273.364 269.377 273.804 268.231 274.392 267.161C275.277 265.098 275.666 262.852 275.529 260.608C275.392 258.363 274.731 256.183 273.601 254.245C273.601 254.245 294.364 255.227 304.092 248.984C313.82 242.74 321.238 226.771 315.355 219.147C309.473 211.523 298.012 221.924 289.515 223.074C281.019 224.225 250.801 229.088 245.983 240.838C241.164 252.588 248.506 256.807 248.734 268.02C248.962 279.234 248.962 300.48 265.575 298.532C265.575 298.532 259.359 290.417 263.675 282.057C266.609 278.544 272.172 283.529 272.172 283.529Z" fill="#263238"/>
<path d="M312.892 232.401C315.712 234.617 318.049 237.395 319.759 240.562C321.469 243.729 322.516 247.217 322.833 250.809C323.76 259.215 338.535 275.552 327.879 284.864C327.879 284.864 325.402 274.97 323.943 270.091C322.483 265.213 320.614 256.285 318.167 253.217C315.719 250.149 302.739 239.411 302.739 239.411L312.892 232.401Z" fill="#263238"/>
<path d="M275.759 331.206C275.759 331.206 286.004 338.017 305.034 338.293L307.268 364.049C307.268 364.049 285.867 362.407 269.953 347.635C269.953 347.635 265.651 336.145 266.791 331.206C267.931 326.266 278.16 321.373 278.16 321.373" stroke="#263238" stroke-width="1.52" stroke-linecap="round" stroke-linejoin="round"/>
<path d="M318.805 319.686L319.413 328.89C315.401 333.107 310.481 336.335 305.034 338.324L316.951 361.226C316.951 361.226 331.163 350.059 332.576 338.324C332.576 338.324 332.698 326.312 330.22 322.876C327.743 319.44 318.714 317.829 318.714 317.829" stroke="#263238" stroke-width="1.52" stroke-linecap="round" stroke-linejoin="round"/>
<path opacity="0.8" d="M261.136 248.508C262.656 244.658 266.821 242.372 270.88 241.758C274.938 241.145 279.103 241.574 283.207 241.467C288.89 241.421 294.455 239.831 299.319 236.865C301.735 235.38 303.838 233.429 305.508 231.123C307.177 228.817 308.379 226.202 309.047 223.427" stroke="white" stroke-width="1.52" stroke-linecap="round" stroke-linejoin="round"/>
<path opacity="0.8" d="M251.332 247.756C253.901 239.887 262.231 235.024 270.424 234.334C274.482 233.981 278.586 234.457 282.584 233.981C286.581 233.505 290.837 231.818 292.95 228.305" stroke="white" stroke-width="1.52" stroke-linecap="round" stroke-linejoin="round"/>
<path d="M247.016 497.814C227.256 508.153 220.233 497.507 209.229 488.702C198.224 479.897 205.444 464.158 203.149 438.923C200.853 413.689 206.569 370.768 206.569 370.768C206.569 370.768 211.493 369.633 225.158 361.196C238.823 352.759 267.581 339.904 267.581 339.904" stroke="#263238" stroke-width="1.52" stroke-linecap="round" stroke-linejoin="round"/>
<path d="M266.594 459.617C266.594 459.617 263.462 449.6 254.616 449.339C245.77 449.079 231.816 453.098 221.875 472.073" stroke="#263238" stroke-width="1.52" stroke-linecap="round" stroke-linejoin="round"/>
<path d="M252.594 448.741C252.044 448.705 251.505 448.575 250.998 448.358C243.705 445.709 235.79 445.346 228.289 447.314" stroke="#263238" stroke-width="1.52" stroke-linecap="round" stroke-linejoin="round"/>
<path d="M223.198 384.466C239.294 402.414 247.138 426.161 254.57 449.171" stroke="#263238" stroke-width="1.52" stroke-linecap="round" stroke-linejoin="round"/>
<path d="M332.577 335.946C332.577 335.946 361.761 342.972 376.018 344.644C390.276 346.316 392.586 348.325 392.586 348.325L395.246 358.358" stroke="#263238" stroke-width="1.52" stroke-linecap="round" stroke-linejoin="round"/>
<path d="M468.571 353.403L369.178 357.253L361.062 460.415H378.086L464.391 440.918L475.244 355.873L468.571 353.403Z" fill="white"/>
<path d="M366.229 463.467L474.939 358.312L464.391 440.918L366.229 463.467Z" fill="#92E3A9"/>
<path opacity="0.7" d="M366.229 463.467L474.939 358.312L464.391 440.918L366.229 463.467Z" fill="white"/>
<path d="M366.229 460.706L374.923 361.196L475.243 355.873L464.391 440.918L366.229 460.706Z" stroke="#263238" stroke-width="1.52" stroke-linecap="round" stroke-linejoin="round"/>
<path d="M432.957 404.086C432.288 410.146 429.081 414.748 425.798 414.379C422.515 414.011 420.417 408.78 421.086 402.721C421.755 396.662 424.977 392.06 428.26 392.428C431.544 392.796 433.641 398.027 432.957 404.086Z" fill="#263238"/>
<path d="M464.391 440.918C464.391 440.918 510.325 439.598 524.689 449.171C539.053 458.743 547.489 506.742 545.498 532.237C543.507 557.732 526.179 616.238 526.179 616.238L492.982 578.318C492.982 578.318 476.627 518.308 485.549 494.807C485.549 494.807 441.469 497.307 424.111 491.816C424.111 491.816 408.561 466.121 381.9 457.623L464.391 440.918Z" fill="#263238"/>
<path d="M533.186 617.236C521.395 606.127 510.807 593.786 501.6 580.42C485.534 555.369 463.327 531.332 440.481 512.571C422.074 497.507 417.909 472.963 395.2 460.645C357.58 440.289 325.052 480.74 312.892 488.932C300.732 497.123 279.68 506.404 279.68 506.404C279.68 506.404 287.372 535.55 309.959 539.002C332.546 542.453 355.392 526.73 366.199 534.323C377.006 541.916 385.001 575.818 420.691 595.683C449.86 611.913 489.608 627.744 510.112 638.42C514.672 640.813 518.077 643.329 520.661 644.756C527.744 648.652 535.314 653.239 542.458 657.779L567.067 672.904C567.067 672.904 591.767 658.163 601.252 644.571C602.513 642.746 605.143 637.883 607.605 633.189C612.971 622.927 619.765 613.723 629.174 608.645C635.68 605.102 641.471 604.043 641.334 603.675C640.711 602.509 628.916 596.419 620.905 599.748C603.942 606.82 570.031 633.987 554.025 631.962C546.581 627.813 539.595 622.877 533.186 617.236V617.236Z" stroke="#263238" stroke-width="1.52" stroke-miterlimit="10"/>
<path d="M533.186 617.236C518.396 623.264 512.438 632.576 510.158 638.435C489.653 627.697 449.905 611.928 420.736 595.698C385.047 575.756 377.112 541.916 366.244 534.338C355.376 526.76 332.516 542.53 310.004 539.017C287.493 535.504 279.68 506.389 279.68 506.389C279.68 506.389 300.748 497.185 312.908 488.993C325.068 480.802 353.112 440.335 395.2 460.706C418.441 471.95 422.074 497.522 440.481 512.632C463.281 531.332 485.534 555.431 501.6 580.481C510.785 593.846 521.375 606.169 533.186 617.236V617.236Z" fill="#263238"/>
<path d="M422.044 487.183C422.044 487.183 410.659 463.836 392.404 459.31" stroke="white" stroke-width="1.52" stroke-linecap="round" stroke-linejoin="round"/>
<path d="M362.369 440.703C349.813 437.942 336.027 451.947 330.221 449.324C325.904 447.376 318.805 458.911 318.805 458.911C307.121 460.614 295.306 461.215 283.511 460.706C266.593 459.617 258.583 462.946 252.594 472.073L244.234 494.424C244.234 494.424 266.289 514.366 289.834 502.753C313.379 491.141 344.661 456.104 366.214 456.227" stroke="#263238" stroke-width="1.52" stroke-linecap="round" stroke-linejoin="round"/>
<path d="M537.639 654.742C537.639 654.742 558.251 656.445 553.417 631.594" stroke="#263238" stroke-width="1.52" stroke-miterlimit="10"/>
<path d="M634.768 616.238C633.248 619.306 614.354 635.536 598.075 649.726C598.075 649.511 602.635 640.844 604.52 637.147C608.852 628.986 620.039 606.605 641.334 603.66C644.359 605.5 634.768 616.238 634.768 616.238Z" fill="#263238"/>
<path d="M626.666 598.766C605.128 603.092 600.234 630.98 592.588 642.838C584.942 654.696 563.708 670.818 563.708 670.818" stroke="#263238" stroke-width="1.52" stroke-miterlimit="10"/>
<path d="M552.095 663.7C555.606 670.174 553.949 677.691 552.095 682.4C551.186 684.739 550.056 686.984 548.72 689.104C518.229 684.041 487.738 667.505 487.738 667.505L479.88 642.961L478.618 639.034L490.459 622.942" stroke="#263238" stroke-width="1.52" stroke-miterlimit="10"/>
<path d="M552.095 682.4C551.187 684.739 550.057 686.984 548.721 689.103C518.229 684.041 487.738 667.505 487.738 667.505L479.88 642.961C483.817 648.146 491.113 655.739 502.057 658.853C516.907 663.102 544.313 668.072 552.095 682.4Z" fill="#263238"/>
<path d="M361.062 456.825L369.178 357.253L468.571 353.403L475.244 355.873" stroke="#263238" stroke-width="1.52" stroke-linecap="round" stroke-linejoin="round"/>
<path d="M553.28 642.838C553.28 642.838 566.869 645.292 577.311 636.702C587.754 628.112 604.58 608.676 604.58 608.676" stroke="#263238" stroke-width="1.52" stroke-miterlimit="10"/>
<path d="M567.113 630.474C567.113 630.474 563.829 635.459 567.113 645.461" stroke="#263238" stroke-width="1.52" stroke-linecap="round" stroke-linejoin="round"/>
<path d="M576.749 625.703C575.255 630.675 575.696 636.035 577.98 640.69" stroke="#263238" stroke-width="1.52" stroke-linecap="round" stroke-linejoin="round"/>
<path d="M588.241 618.984C588.241 618.984 585.49 627.314 588.241 634.662" stroke="#263238" stroke-width="1.52" stroke-linecap="round" stroke-linejoin="round"/>
<path d="M493.149 620.871L482.251 634.11C482.251 634.11 493.225 646.213 508.714 651.244C524.203 656.276 551.867 664.82 554.162 673.917" stroke="#263238" stroke-width="1.52" stroke-miterlimit="10"/>
<path d="M425.1 399.647C424.492 399.647 424 400.137 424 400.74V407.638C424 408.241 424.492 408.73 425.1 408.73C425.707 408.73 426.2 408.241 426.2 407.638V400.74C426.2 400.137 425.707 399.647 425.1 399.647Z" fill="#6FCF97"/>
<path d="M428.081 402.537C427.528 402.537 427.08 402.983 427.08 403.532V405.926C427.08 406.475 427.528 406.92 428.081 406.92C428.634 406.92 429.082 406.475 429.082 405.926V403.532C429.082 402.983 428.634 402.537 428.081 402.537Z" fill="#6FCF97"/>
<path d="M427.08 401.055C427.08 400.505 427.528 400.06 428.081 400.06C428.634 400.06 429.082 400.505 429.082 401.055V401.257C429.082 401.806 428.634 402.252 428.081 402.252C427.528 402.252 427.08 401.806 427.08 401.257V401.055Z" fill="#6FCF97"/>
<path d="M430.999 403.044C430.446 403.044 429.998 403.489 429.998 404.039V404.241C429.998 404.791 430.446 405.236 430.999 405.236C431.552 405.236 432 404.791 432 404.241V404.039C432 403.489 431.552 403.044 430.999 403.044Z" fill="#6FCF97"/>
</svg>
